<svg xmlns="http://www.w3.org/2000/svg" width="2000" height="1999.92" viewBox="0 0 2000 1999.92"><title>SVG export Illustrator</title><path d="M382.11,1631.61l627.52,251.91,621.85-265.58,252-627.52L1617.89,368.57,990.37,116.62l-622,265.67-251.9,627.47Zm628.14,368.31a55.94,55.94,0,0,1-20.83-4L318.86,1726.7a55.27,55.27,0,0,1-30.52-29.94L4.53,1032.23a55.53,55.53,0,0,1-.46-42.84l269.2-670.56a55.56,55.56,0,0,1,29.94-30.56L967.74,4.49A56,56,0,0,1,1010.62,4l670.52,269.2a55.56,55.56,0,0,1,30.56,29.94l283.77,664.4a55.63,55.63,0,0,1,.46,42.88L1726.73,1681a55.09,55.09,0,0,1-29.94,30.51l-664.44,283.82A54.84,54.84,0,0,1,1010.25,1999.92Z"/><polygon points="1144.3 989.45 875.55 1285.42 1299.1 1285.42 1299.1 1412.95 700.95 1412.95 700.95 1285.42 967.19 990.68 702.14 714.5 702.14 586.97 1299.1 586.97 1299.1 714.5 881.71 714.5 1144.3 989.45"/></svg>