<svg width="457" height="456" viewBox="0 0 457 456" fill="none" xmlns="http://www.w3.org/2000/svg">
<path d="M228.5 455.6C354.311 455.6 456.3 353.61 456.3 227.8C456.3 101.99 354.311 0 228.5 0C102.69 0 0.700195 101.99 0.700195 227.8C0.700195 353.61 102.69 455.6 228.5 455.6Z" fill="url(#paint0_linear_3_40)"/>
<path d="M392.96 259.99C388.97 256.33 383.6 256.53 379.61 259.99C377.6 261.73 375.55 263.41 373.46 265.05C362.63 273.27 350.8 280.1 338.32 285.49C324.8 291.06 310.62 294.92 296.14 296.98C282.02 298.75 267.73 298.8 253.61 297.02C236.07 294.46 219.26 288.8 202.79 282.37C216.17 276.38 229.18 269.59 241.83 262.14C248.98 257.93 256.02 253.51 262.95 248.94C274.85 250.8 286.99 251.33 298.97 250.43C307.82 249.76 316.66 248.44 325.3 246.43C332.8 244.69 340.14 242.48 347.12 239.19C356.06 234.99 364.89 228.04 368.99 218.8C370.93 214.43 372.22 209.86 372.03 205.03C371.86 200.46 370.7 196.13 368.53 192.11C364.6 184.82 356.9 179.33 348.76 177.85C338.19 175.92 327.67 178.7 318.61 184.33C314.23 187.05 310.3 190.45 306.28 193.66C302.93 196.34 299.57 199.01 296.2 201.66C294.77 202.78 293.33 203.9 291.89 205.02C281.11 213.33 270.12 221.36 258.86 228.99C248.11 226.65 237.69 223.14 227.48 218.92C218.82 215.23 210.34 211.13 201.97 206.81C213.96 202.15 225.66 196.73 237.1 190.89C253.55 182.5 269.53 173.19 285.29 163.57C289.41 161.06 293.5 158.52 297.6 155.97C301.79 153.36 303.81 147.42 300.99 143.05C298.28 138.85 292.56 136.87 288.07 139.66C266.06 153.38 243.75 166.76 220.42 178.15C214.71 180.94 208.94 183.59 203.1 186.08C195.42 189.28 187.6 192.19 179.65 194.68C179.47 194.58 179.29 194.48 179.12 194.38C171.06 189.84 163.06 185.21 155.03 180.62C147.37 176.24 139.74 171.7 131.88 167.69C126.57 164.98 120.9 162.63 115.03 161.44C109.33 160.28 103.94 160.07 98.2099 160.94C90.1299 162.16 82.22 167.05 78.22 174.31C73.87 182.19 74.2899 191.37 78.3599 199.26C83.0099 208.28 92.1999 213.93 101.4 217.37C107.38 219.6 113.71 220.65 120.04 221.31C127.2 222.06 134.46 221.93 141.64 221.38C153.74 220.45 165.69 218.25 177.38 215.05C185.3 219.42 193.29 223.67 201.41 227.65C213.05 233.35 225.03 238.75 237.4 242.8C229.82 247.39 222.12 251.78 214.28 255.9C205.82 260.34 197.18 264.46 188.39 268.22C184.94 269.65 181.47 271.04 177.97 272.34C166.91 267.8 155.83 263.28 144.59 259.2C134.17 255.42 123.61 251.99 112.9 249.12C108.1 247.83 103.38 246.71 98.42 246.24C94.7 245.89 91.1 246.21 87.41 246.77C75.83 248.54 64.6399 257.17 61.9899 268.93C60.5699 275.25 61.41 281.48 64.31 287.25C67.07 292.74 72.1999 297.26 77.6099 300.03C85.1399 303.89 93.48 305.46 101.88 305.79C112.13 306.19 122.44 305.13 132.57 303.72C147.94 301.58 163.02 297.65 177.66 292.5C189.44 297.36 201.24 302.19 213.29 306.34C232.08 312.81 251.53 316.86 271.45 317.24C291.86 317.63 312.56 314.46 331.93 308C352.07 301.29 370.7 291.21 387.34 278.05C389.26 276.53 391.14 274.97 392.99 273.37C396.74 270.12 396.56 263.3 392.99 260.02L392.96 259.99ZM319.23 207.34C320.96 205.96 322.68 204.57 324.41 203.2C327.12 201.19 329.99 199.41 333.05 197.98C335.16 197.16 337.34 196.53 339.57 196.13C341.03 196.01 342.49 196 343.96 196.13C345.06 196.35 346.14 196.64 347.2 197.02C348.01 197.43 348.79 197.88 349.54 198.39C350.15 198.93 350.72 199.5 351.26 200.1C351.7 200.75 352.09 201.43 352.45 202.13C352.72 202.9 352.93 203.69 353.1 204.5C353.16 205.37 353.16 206.24 353.1 207.1C352.89 208.14 352.61 209.16 352.26 210.16C351.66 211.4 350.95 212.59 350.16 213.72C348.77 215.38 347.21 216.89 345.53 218.27C342.78 220.24 339.81 221.89 336.73 223.29C327.29 227.12 317.01 229.3 306.93 230.74C300.41 231.56 293.85 231.98 287.29 231.97C298.13 224.02 308.74 215.75 319.24 207.35L319.23 207.34ZM118.51 202.22C114.17 201.54 109.9 200.49 105.8 198.91C103.46 197.85 101.22 196.59 99.13 195.1C98.01 194.15 96.97 193.12 96.01 192C95.46 191.19 94.95 190.34 94.51 189.47C94.27 188.78 94.0799 188.09 93.9299 187.38C93.8999 186.81 93.8999 186.24 93.9299 185.68C94.0399 185.17 94.18 184.67 94.34 184.18C94.58 183.72 94.84 183.27 95.13 182.84C95.54 182.38 95.98 181.95 96.44 181.54C97.11 181.1 97.7999 180.7 98.5199 180.34C99.6999 179.92 100.91 179.59 102.14 179.35C104.31 179.15 106.48 179.19 108.65 179.42C112.12 180.02 115.49 181.04 118.76 182.33C124.69 184.95 130.3 188.33 135.94 191.51C141.59 194.7 147.22 197.93 152.84 201.16C151.69 201.35 150.53 201.53 149.37 201.69C139.18 202.99 128.74 203.48 118.52 202.23L118.51 202.22ZM127.89 285.42C122.49 286.11 117.07 286.59 111.63 286.8C106.72 286.99 101.8 287.04 96.91 286.49C93.97 286.01 91.07 285.3 88.29 284.25C86.72 283.52 85.21 282.67 83.79 281.67C83.06 281.03 82.37 280.35 81.73 279.62C81.33 279.02 80.96 278.39 80.63 277.75C80.43 277.16 80.27 276.55 80.14 275.94C80.11 275.34 80.11 274.73 80.14 274.13C80.29 273.45 80.47 272.79 80.69 272.13C81.04 271.44 81.4399 270.78 81.8699 270.13C82.4799 269.44 83.1299 268.78 83.8299 268.18C84.7999 267.51 85.83 266.91 86.89 266.39C88.42 265.83 89.9799 265.4 91.5799 265.11C94.0299 264.88 96.4799 264.92 98.9299 265.18C103.05 265.88 107.09 267.08 111.1 268.2C116.56 269.72 121.99 271.39 127.38 273.17C134.86 275.64 142.26 278.34 149.62 281.17C146.69 281.9 143.74 282.59 140.78 283.2C136.51 284.08 132.22 284.82 127.91 285.43L127.89 285.42Z" fill="white"/>
<defs>
<linearGradient id="paint0_linear_3_40" x1="0.700195" y1="227.8" x2="456.29" y2="227.8" gradientUnits="userSpaceOnUse">
<stop stop-color="#4C61DF"/>
<stop offset="1" stop-color="#2B2A47"/>
</linearGradient>
</defs>
</svg>
