<svg width="456" height="456" viewBox="0 0 456 456" fill="none" xmlns="http://www.w3.org/2000/svg">
<path d="M227.9 455.6C353.711 455.6 455.7 353.61 455.7 227.8C455.7 101.99 353.711 0 227.9 0C102.09 0 0.100098 101.99 0.100098 227.8C0.100098 353.61 102.09 455.6 227.9 455.6Z" fill="#4C61DF"/>
<path d="M392.37 259.99C388.38 256.33 383.01 256.53 379.02 259.99C377.01 261.73 374.96 263.41 372.87 265.05C362.04 273.27 350.21 280.1 337.73 285.49C324.21 291.06 310.03 294.92 295.55 296.98C281.43 298.75 267.14 298.8 253.02 297.02C235.48 294.46 218.67 288.8 202.2 282.37C215.58 276.38 228.59 269.59 241.24 262.14C248.39 257.93 255.43 253.51 262.36 248.94C274.26 250.8 286.4 251.33 298.38 250.43C307.23 249.76 316.07 248.44 324.71 246.43C332.21 244.69 339.55 242.48 346.53 239.19C355.47 234.99 364.3 228.04 368.4 218.8C370.34 214.43 371.63 209.86 371.44 205.03C371.27 200.46 370.11 196.13 367.94 192.11C364.01 184.82 356.31 179.33 348.17 177.85C337.6 175.92 327.08 178.7 318.02 184.33C313.64 187.05 309.71 190.45 305.69 193.66C302.34 196.34 298.98 199.01 295.61 201.66C294.18 202.78 292.74 203.9 291.3 205.02C280.52 213.33 269.53 221.36 258.27 228.99C247.52 226.65 237.1 223.14 226.89 218.92C218.23 215.23 209.75 211.13 201.38 206.81C213.37 202.15 225.07 196.73 236.51 190.89C252.96 182.5 268.94 173.19 284.7 163.57C288.82 161.06 292.91 158.52 297.01 155.97C301.2 153.36 303.22 147.42 300.4 143.05C297.69 138.85 291.97 136.87 287.48 139.66C265.47 153.38 243.16 166.76 219.83 178.15C214.12 180.94 208.35 183.59 202.51 186.08C194.83 189.28 187.01 192.19 179.06 194.68C178.88 194.58 178.7 194.48 178.53 194.38C170.47 189.84 162.47 185.21 154.44 180.62C146.78 176.24 139.15 171.7 131.29 167.69C125.98 164.98 120.31 162.63 114.44 161.44C108.74 160.28 103.35 160.07 97.6201 160.94C89.5401 162.16 81.6301 167.05 77.6301 174.31C73.2801 182.19 73.7001 191.37 77.7701 199.26C82.4201 208.28 91.6102 213.93 100.81 217.37C106.79 219.6 113.12 220.65 119.45 221.31C126.61 222.06 133.87 221.93 141.05 221.38C153.15 220.45 165.1 218.25 176.79 215.05C184.71 219.42 192.7 223.67 200.82 227.65C212.46 233.35 224.44 238.75 236.81 242.8C229.23 247.39 221.53 251.78 213.69 255.9C205.23 260.34 196.59 264.46 187.8 268.22C184.35 269.65 180.88 271.04 177.38 272.34C166.32 267.8 155.24 263.28 144 259.2C133.58 255.42 123.02 251.99 112.31 249.12C107.51 247.83 102.79 246.71 97.83 246.24C94.11 245.89 90.5101 246.21 86.8201 246.77C75.2401 248.54 64.0501 257.17 61.4001 268.93C59.9801 275.25 60.8201 281.48 63.7201 287.25C66.4801 292.74 71.6101 297.26 77.0201 300.03C84.5501 303.89 92.8901 305.46 101.29 305.79C111.54 306.19 121.85 305.13 131.98 303.72C147.35 301.58 162.43 297.65 177.07 292.5C188.85 297.36 200.65 302.19 212.7 306.34C231.49 312.81 250.94 316.86 270.86 317.24C291.27 317.63 311.97 314.46 331.34 308C351.48 301.29 370.11 291.21 386.75 278.05C388.67 276.53 390.55 274.97 392.4 273.37C396.15 270.12 395.97 263.3 392.4 260.02L392.37 259.99ZM318.64 207.34C320.37 205.96 322.09 204.57 323.82 203.2C326.53 201.19 329.4 199.41 332.46 197.98C334.57 197.16 336.75 196.53 338.98 196.13C340.44 196.01 341.9 196 343.37 196.13C344.47 196.35 345.55 196.64 346.61 197.02C347.42 197.43 348.2 197.88 348.95 198.39C349.56 198.93 350.13 199.5 350.67 200.1C351.11 200.75 351.5 201.43 351.86 202.13C352.13 202.9 352.34 203.69 352.51 204.5C352.57 205.37 352.57 206.24 352.51 207.1C352.3 208.14 352.02 209.16 351.67 210.16C351.07 211.4 350.36 212.59 349.57 213.72C348.18 215.38 346.62 216.89 344.94 218.27C342.19 220.24 339.22 221.89 336.14 223.29C326.7 227.12 316.42 229.3 306.34 230.74C299.82 231.56 293.26 231.98 286.7 231.97C297.54 224.02 308.15 215.75 318.65 207.35L318.64 207.34ZM117.92 202.22C113.58 201.54 109.31 200.49 105.21 198.91C102.87 197.85 100.63 196.59 98.5401 195.1C97.4201 194.15 96.3801 193.12 95.4201 192C94.8701 191.19 94.3601 190.34 93.9201 189.47C93.6801 188.78 93.4901 188.09 93.3401 187.38C93.3101 186.81 93.3101 186.24 93.3401 185.68C93.4501 185.17 93.5901 184.67 93.7501 184.18C93.9901 183.72 94.2501 183.27 94.5401 182.84C94.9501 182.38 95.3901 181.95 95.8501 181.54C96.5201 181.1 97.2101 180.7 97.9301 180.34C99.1101 179.92 100.32 179.59 101.55 179.35C103.72 179.15 105.89 179.19 108.06 179.42C111.53 180.02 114.9 181.04 118.17 182.33C124.1 184.95 129.71 188.33 135.35 191.51C141 194.7 146.63 197.93 152.25 201.16C151.1 201.35 149.94 201.53 148.78 201.69C138.59 202.99 128.15 203.48 117.93 202.23L117.92 202.22ZM127.3 285.42C121.9 286.11 116.48 286.59 111.04 286.8C106.13 286.99 101.21 287.04 96.32 286.49C93.38 286.01 90.4801 285.3 87.7001 284.25C86.1301 283.52 84.6201 282.67 83.2001 281.67C82.4701 281.03 81.7801 280.35 81.1401 279.62C80.7401 279.02 80.3701 278.39 80.0401 277.75C79.8401 277.16 79.6801 276.55 79.5501 275.94C79.5201 275.34 79.5201 274.73 79.5501 274.13C79.7001 273.45 79.8801 272.79 80.1001 272.13C80.4501 271.44 80.8501 270.78 81.2801 270.13C81.8901 269.44 82.5401 268.78 83.2401 268.18C84.2101 267.51 85.2401 266.91 86.3001 266.39C87.8301 265.83 89.3901 265.4 90.9901 265.11C93.4401 264.88 95.8901 264.92 98.3401 265.18C102.46 265.88 106.5 267.08 110.51 268.2C115.97 269.72 121.4 271.39 126.79 273.17C134.27 275.64 141.67 278.34 149.03 281.17C146.1 281.9 143.15 282.59 140.19 283.2C135.92 284.08 131.63 284.82 127.32 285.43L127.3 285.42Z" fill="white"/>
</svg>
