<svg width="411" height="456" viewBox="0 0 411 456" fill="none" xmlns="http://www.w3.org/2000/svg">
<path d="M401.37 145.2C396.61 140.83 390.22 141.08 385.46 145.2C383.07 147.27 380.62 149.27 378.14 151.22C365.23 161.01 351.14 169.16 336.27 175.57C320.16 182.21 303.26 186.8 286.02 189.26C269.2 191.37 252.17 191.43 235.35 189.31C214.45 186.27 194.43 179.52 174.8 171.86C190.74 164.72 206.25 156.63 221.31 147.76C229.83 142.74 238.21 137.48 246.47 132.03C260.65 134.24 275.11 134.88 289.38 133.81C299.92 133.02 310.45 131.44 320.75 129.05C329.69 126.97 338.43 124.34 346.75 120.43C357.4 115.42 367.92 107.14 372.8 96.14C375.11 90.94 376.65 85.49 376.43 79.73C376.22 74.29 374.84 69.13 372.26 64.33C367.57 55.64 358.4 49.11 348.71 47.34C336.11 45.04 323.58 48.35 312.79 55.06C307.58 58.31 302.89 62.35 298.1 66.18C294.11 69.37 290.11 72.55 286.09 75.71C284.38 77.05 282.67 78.38 280.95 79.71C268.11 89.61 255.02 99.18 241.59 108.27C228.78 105.48 216.37 101.3 204.2 96.27C193.88 91.87 183.77 86.99 173.81 81.84C188.09 76.29 202.04 69.83 215.66 62.87C235.26 52.87 254.29 41.78 273.07 30.32C277.97 27.33 282.86 24.31 287.73 21.27C292.72 18.16 295.12 11.09 291.77 5.87998C288.54 0.879983 281.72 -1.48999 276.38 1.84001C250.15 18.19 223.57 34.13 195.78 47.7C188.98 51.02 182.1 54.18 175.14 57.15C165.98 60.97 156.67 64.43 147.2 67.39C146.99 67.27 146.78 67.15 146.56 67.03C136.96 61.62 127.43 56.11 117.86 50.63C108.73 45.41 99.6499 40 90.2799 35.23C83.9499 32.01 77.19 29.21 70.21 27.78C63.42 26.39 56.9899 26.15 50.1699 27.18C40.5399 28.64 31.12 34.46 26.35 43.1C21.17 52.49 21.6699 63.43 26.5199 72.83C32.0599 83.58 43.01 90.3 53.98 94.4C61.1 97.06 68.6499 98.3 76.1899 99.09C84.7199 99.98 93.3799 99.83 101.92 99.17C116.34 98.06 130.58 95.44 144.5 91.63C153.94 96.84 163.45 101.9 173.13 106.64C186.99 113.43 201.27 119.86 216.01 124.69C206.98 130.16 197.81 135.39 188.46 140.3C178.38 145.59 168.09 150.5 157.61 154.97C153.5 156.68 149.37 158.32 145.2 159.88C132.02 154.47 118.83 149.08 105.43 144.22C93.0099 139.71 80.4299 135.63 67.6699 132.21C61.9499 130.68 56.3199 129.34 50.4099 128.78C45.9799 128.36 41.6899 128.74 37.2999 129.41C23.4999 131.51 10.1699 141.8 7.01989 155.81C5.32989 163.33 6.32991 170.76 9.78991 177.63C13.0799 184.17 19.1899 189.56 25.6299 192.86C34.5999 197.46 44.5299 199.33 54.5399 199.72C66.7499 200.2 79.03 198.93 91.11 197.25C109.43 194.7 127.39 190.01 144.84 183.88C158.88 189.67 172.93 195.42 187.29 200.37C209.68 208.08 232.85 212.9 256.58 213.35C280.9 213.81 305.56 210.04 328.64 202.35C352.64 194.35 374.83 182.35 394.65 166.67C396.94 164.86 399.18 163 401.38 161.09C405.84 157.22 405.64 149.09 401.38 145.18L401.37 145.2ZM313.53 82.4699C315.59 80.8199 317.64 79.16 319.71 77.53C322.94 75.14 326.36 73.01 330.01 71.31C332.53 70.33 335.12 69.58 337.78 69.11C339.52 68.97 341.26 68.96 343.01 69.11C344.32 69.37 345.61 69.72 346.87 70.17C347.84 70.65 348.77 71.2 349.66 71.81C350.38 72.45 351.07 73.13 351.7 73.85C352.22 74.63 352.69 75.44 353.12 76.27C353.44 77.19 353.69 78.13 353.89 79.09C353.96 80.12 353.96 81.16 353.89 82.19C353.64 83.43 353.31 84.64 352.89 85.83C352.17 87.31 351.33 88.73 350.39 90.08C348.73 92.06 346.88 93.86 344.88 95.5C341.6 97.85 338.07 99.81 334.39 101.48C323.14 106.05 310.9 108.64 298.89 110.35C291.12 111.33 283.3 111.83 275.48 111.81C288.4 102.33 301.03 92.48 313.55 82.48L313.53 82.4699ZM74.3799 76.37C69.2099 75.56 64.12 74.31 59.24 72.42C56.45 71.16 53.7799 69.66 51.2999 67.88C49.9699 66.75 48.7199 65.52 47.5799 64.18C46.9199 63.21 46.3199 62.21 45.7999 61.16C45.5199 60.34 45.29 59.51 45.11 58.67C45.07 57.99 45.07 57.32 45.11 56.64C45.24 56.04 45.4 55.44 45.6 54.85C45.89 54.3 46.1999 53.77 46.5399 53.25C47.0299 52.71 47.55 52.19 48.1 51.71C48.89 51.18 49.7199 50.71 50.5799 50.28C51.9899 49.78 53.4299 49.39 54.8999 49.11C57.4799 48.88 60.0699 48.92 62.6499 49.19C66.7799 49.9 70.7999 51.12 74.6999 52.66C81.7599 55.78 88.4499 59.81 95.1699 63.6C101.9 67.4 108.61 71.25 115.31 75.1C113.93 75.33 112.56 75.54 111.18 75.74C99.0399 77.28 86.5999 77.87 74.4199 76.39L74.3799 76.37ZM85.5599 175.5C79.1299 176.32 72.6699 176.89 66.1899 177.15C60.3399 177.38 54.4699 177.44 48.6499 176.78C45.1499 176.21 41.7 175.36 38.37 174.11C36.5 173.24 34.6999 172.22 33.0099 171.04C32.1399 170.28 31.3199 169.46 30.5599 168.59C30.0799 167.87 29.64 167.13 29.25 166.36C29.01 165.65 28.8199 164.93 28.6599 164.2C28.6199 163.48 28.6199 162.76 28.6599 162.04C28.8299 161.23 29.0499 160.44 29.3199 159.66C29.7399 158.84 30.21 158.05 30.72 157.28C31.45 156.45 32.2199 155.68 33.0499 154.95C34.2099 154.15 35.4299 153.44 36.6899 152.82C38.5099 152.15 40.3699 151.64 42.2799 151.3C45.1899 151.02 48.1199 151.07 51.0299 151.38C55.9299 152.21 60.7499 153.64 65.5299 154.98C72.0399 156.8 78.5099 158.78 84.9199 160.9C93.8299 163.84 102.65 167.06 111.41 170.43C107.91 171.3 104.41 172.12 100.88 172.85C95.7999 173.9 90.6799 174.78 85.5399 175.51L85.5599 175.5Z" fill="white"/>
<path d="M0 403.46C0 374.25 31.5399 358.17 52.7899 355.46C53.1699 355.41 53.46 355.09 53.46 354.7C53.46 354.32 53.1799 354 52.8099 353.94C31.7299 350.84 8.50989 336.78 8.50989 312.43C8.50989 285.59 41.16 268.15 73.59 268.15C106.02 268.15 126.6 287.83 126.6 306.62C126.6 320.93 114.08 332.34 101.55 332.34C91.9299 332.34 84.5499 326.52 84.5499 317.13C84.5499 302.14 103.56 301.47 103.56 289.17C103.56 281.34 90.5899 274.86 78.2899 274.86C51.4499 274.86 38.0299 290.74 38.0299 306.84C38.0299 331.15 61.63 350.2 90.22 351.3C91.68 351.36 92.83 352.57 92.83 354.03C92.83 355.5 91.67 356.71 90.2 356.76C57.43 357.84 35.35 378.98 35.35 400.33C35.35 428.51 55.4799 445.96 82.3199 445.96C95.2899 445.96 113.86 439.92 113.86 428.29C113.86 411.52 90.8199 412.41 90.8199 392.5C90.8199 383.33 99.1 376.17 110.5 376.17C125.93 376.17 136.44 390.71 136.44 407.93C136.44 430.74 113.85 455.12 68.8999 455.12C35.3499 455.12 0.0098877 440.58 0.0098877 403.46H0Z" fill="white"/>
<path d="M184.18 390.75L190.68 396.37L166.3 429.75C164.63 431.92 163.94 433.77 164.24 435.31C164.53 436.85 165.97 438.12 168.55 439.12L173.3 440.37C174.8 441.04 175.88 441.75 176.55 442.49C177.22 443.24 177.55 444.16 177.55 445.24C177.55 446.74 177.05 447.93 176.05 448.8C175.05 449.67 173.55 450.11 171.55 450.11H143.05C141.38 450.11 140.03 449.67 138.99 448.8C137.95 447.92 137.43 446.7 137.43 445.11C137.43 444.03 137.78 443.05 138.49 442.17C139.2 441.29 140.51 440.44 142.43 439.61C144.35 438.94 146.07 438.07 147.62 436.99C149.16 435.91 150.68 434.51 152.18 432.8C153.68 431.09 155.43 429.03 157.43 426.61L184.18 390.73V390.75ZM182.06 359.37L203.94 389.62L205.82 392L235.44 432C237.19 434.5 238.79 436.36 240.25 437.56C241.71 438.77 243.44 439.71 245.44 440.37C246.94 440.95 247.98 441.64 248.56 442.43C249.14 443.22 249.44 444.16 249.44 445.24C249.44 446.82 248.96 448.03 248 448.86C247.04 449.69 245.64 450.11 243.81 450.11H203.43C201.51 450.11 200.01 449.69 198.93 448.86C197.85 448.03 197.31 446.82 197.31 445.24C197.31 444.07 197.58 443.16 198.12 442.49C198.66 441.82 199.56 441.24 200.81 440.74L205.69 439.36C207.77 438.86 208.9 438.07 209.07 436.98C209.24 435.9 208.78 434.56 207.69 432.98L183.57 399.98L181.69 397.36L154.31 359.98C152.56 357.56 150.87 355.73 149.25 354.48C147.63 353.23 145.77 352.27 143.69 351.6C142.19 351.02 141.11 350.29 140.44 349.41C139.77 348.53 139.44 347.52 139.44 346.35C139.44 344.77 139.96 343.58 141 342.79C142.04 342 143.44 341.6 145.19 341.6H185.94C187.77 341.6 189.19 342.02 190.19 342.85C191.19 343.68 191.69 344.85 191.69 346.35C191.69 347.6 191.46 348.58 191 349.29C190.54 350 189.69 350.65 188.44 351.23L183.69 352.35C181.69 352.93 180.57 353.79 180.31 354.91C180.05 356.03 180.64 357.52 182.06 359.35V359.37ZM202.44 398.75L196.06 393L218.56 362.12C220.31 359.79 221.04 357.83 220.75 356.24C220.46 354.66 218.98 353.41 216.31 352.49L211.56 351.37C209.98 350.7 208.89 349.98 208.31 349.18C207.73 348.39 207.43 347.45 207.43 346.37C207.43 344.87 207.93 343.7 208.93 342.87C209.93 342.04 211.35 341.62 213.18 341.62H241.8C243.47 341.62 244.78 342.02 245.74 342.81C246.7 343.6 247.18 344.83 247.18 346.5C247.18 347.58 246.85 348.56 246.18 349.44C245.51 350.32 244.22 351.13 242.3 351.88C239.38 353.05 236.9 354.59 234.86 356.5C232.82 358.42 230.34 361.33 227.42 365.25L202.42 398.75H202.44Z" fill="white"/>
<path d="M292.05 272.25V430.87C292.05 433.54 292.4 435.43 293.11 436.56C293.82 437.68 295.05 438.5 296.8 439L301.68 440C302.93 440.58 303.89 441.31 304.56 442.19C305.23 443.07 305.56 444.09 305.56 445.25C305.56 446.75 305.1 447.94 304.18 448.81C303.26 449.69 301.85 450.12 299.93 450.12H261.18C259.43 450.12 258.06 449.68 257.06 448.81C256.06 447.94 255.56 446.75 255.56 445.25C255.56 444.08 255.89 443.06 256.56 442.19C257.23 441.31 258.23 440.59 259.56 440L264.44 439C266.19 438.5 267.42 437.69 268.13 436.56C268.84 435.44 269.19 433.54 269.19 430.87V291.37C269.19 289.2 268.88 287.66 268.25 286.75C267.63 285.83 266.56 285.21 265.06 284.87L257.81 284.62C256.39 284.2 255.39 283.62 254.81 282.87C254.23 282.12 253.93 281.2 253.93 280.12C253.93 278.87 254.31 277.79 255.05 276.87C255.8 275.95 257.17 275.16 259.17 274.49L277.17 268.49C279.59 267.57 281.46 266.95 282.79 266.61C284.12 266.28 285.33 266.11 286.41 266.11C288.24 266.11 289.64 266.67 290.6 267.8C291.56 268.92 292.04 270.41 292.04 272.24L292.05 272.25Z" fill="white"/>
<path d="M410.55 380.88C410.55 385.13 409.43 388.38 407.17 390.63C404.91 392.88 401.63 394.01 397.29 394.01H329.42V385.01H380.54C384.71 385.01 386.79 382.93 386.79 378.76C386.79 370.18 384.67 363.32 380.41 358.2C376.15 353.08 370.62 350.51 363.79 350.51C358.29 350.51 353.37 352.07 349.04 355.2C344.71 358.32 341.33 362.82 338.92 368.7C336.5 374.58 335.3 381.6 335.3 389.76C335.3 404.76 338.72 416.2 345.55 424.07C352.38 431.95 361.3 435.88 372.3 435.88C379.97 435.88 386.47 433.96 391.8 430.13C397.13 426.3 400.88 421.67 403.05 416.25C403.88 415.08 404.67 414.25 405.43 413.75C406.19 413.25 406.93 413 407.68 413C408.68 413 409.49 413.42 410.12 414.25C410.74 415.08 410.97 416.21 410.81 417.63C410.31 423.71 408.12 429.4 404.25 434.69C400.37 439.98 395.17 444.3 388.63 447.63C382.09 450.96 374.44 452.63 365.69 452.63C355.11 452.63 345.96 450.3 338.25 445.63C330.54 440.96 324.58 434.44 320.37 426.07C316.16 417.69 314.06 407.93 314.06 396.76C314.06 385.59 316.16 376.01 320.37 367.26C324.58 358.51 330.62 351.64 338.49 346.64C346.36 341.64 355.88 339.14 367.05 339.14C375.72 339.14 383.3 340.93 389.8 344.52C396.3 348.1 401.38 353.06 405.05 359.4C408.72 365.73 410.55 372.9 410.55 380.9V380.88Z" fill="white"/>
</svg>
