<?xml version="1.0" encoding="UTF-8" standalone="no"?>
<!DOCTYPE svg PUBLIC "-//W3C//DTD SVG 1.1//EN" "http://www.w3.org/Graphics/SVG/1.1/DTD/svg11.dtd">
<svg width="100%" height="100%" viewBox="0 0 884 214" version="1.1" xmlns="http://www.w3.org/2000/svg" xmlns:xlink="http://www.w3.org/1999/xlink" xml:space="preserve" xmlns:serif="http://www.serif.com/" style="fill-rule:evenodd;clip-rule:evenodd;stroke-linejoin:round;stroke-miterlimit:2;">
    <path d="M557.87,43.746L557.87,43.996C557.87,51.586 551.72,57.736 544.13,57.736L513.71,57.736C506.12,57.736 499.97,63.886 499.97,71.476L499.97,78.346C499.97,85.936 506.12,92.086 513.71,92.086L539.22,92.086C546.81,92.086 552.96,98.236 552.96,105.826C552.96,113.416 546.81,119.566 539.22,119.566L513.71,119.566C506.12,119.566 499.97,125.716 499.97,133.306L499.97,141.896C499.97,149.486 506.12,155.636 513.71,155.636L543.89,155.636C551.48,155.636 557.63,161.786 557.63,169.376C557.63,176.966 551.48,183.116 543.89,183.116L483.29,183.116C475.7,183.116 469.55,176.966 469.55,169.376L469.55,43.746C469.55,36.156 475.7,30.006 483.29,30.006L544.13,30.006C551.72,30.006 557.87,36.156 557.87,43.746Z" style="fill:white;fill-rule:nonzero;"/>
    <path d="M604.45,38.066L617.72,67.296C619.16,70.476 623.68,70.496 625.15,67.326L638.8,37.956C641.05,33.106 645.91,30.006 651.26,30.006L651.46,30.006C661.66,30.006 668.31,40.736 663.76,49.876L647.75,81.996C641.05,95.446 641.07,111.266 647.8,124.696L667.11,163.196C671.69,172.336 665.05,183.096 654.83,183.096L652.54,183.096C647.17,183.096 642.29,179.966 640.05,175.086L624.15,140.446C622.69,137.266 618.16,137.276 616.71,140.456L601.01,175.026C598.78,179.936 593.89,183.086 588.5,183.086L587.87,183.086C577.67,183.086 571.03,172.366 575.57,163.236L594.37,125.406C601.04,111.986 601.02,96.216 594.32,82.806L577.86,49.886C573.29,40.756 579.94,30.006 590.15,30.006L591.94,30.006C597.33,30.006 602.22,33.156 604.45,38.066Z" style="fill:white;fill-rule:nonzero;"/>
    <path d="M721.25,43.746L721.25,141.876C721.25,149.466 727.4,155.616 734.99,155.616L765.66,155.616C773.25,155.616 779.4,161.766 779.4,169.356C779.4,176.946 773.25,183.096 765.66,183.096L704.57,183.096C696.98,183.096 690.83,176.946 690.83,169.356L690.83,43.746C690.83,36.156 696.98,30.006 704.57,30.006L707.51,30.006C715.1,30.006 721.25,36.156 721.25,43.746Z" style="fill:white;fill-rule:nonzero;"/>
    <path d="M883.41,43.746L883.41,43.996C883.41,51.586 877.26,57.736 869.67,57.736L839.25,57.736C831.66,57.736 825.51,63.886 825.51,71.476L825.51,78.346C825.51,85.936 831.66,92.086 839.25,92.086L864.76,92.086C872.35,92.086 878.5,98.236 878.5,105.826C878.5,113.416 872.35,119.566 864.76,119.566L839.25,119.566C831.66,119.566 825.51,125.716 825.51,133.306L825.51,141.896C825.51,149.486 831.66,155.636 839.25,155.636L869.43,155.636C877.02,155.636 883.17,161.786 883.17,169.376C883.17,176.966 877.02,183.116 869.43,183.116L808.83,183.116C801.24,183.116 795.09,176.966 795.09,169.376L795.09,43.746C795.09,36.156 801.24,30.006 808.83,30.006L869.67,30.006C877.26,30.006 883.41,36.156 883.41,43.746Z" style="fill:white;fill-rule:nonzero;"/>
    <path d="M395.91,144.906C391.15,140.536 384.76,140.786 380,144.906C377.61,146.976 375.16,148.976 372.68,150.926C359.77,160.716 345.68,168.866 330.81,175.276C314.7,181.916 297.8,186.506 280.56,188.966C263.74,191.076 246.71,191.136 229.89,189.016C208.99,185.976 188.97,179.226 169.34,171.566C185.28,164.426 200.79,156.336 215.85,147.466C224.37,142.446 232.75,137.186 241.01,131.736C255.19,133.946 269.65,134.586 283.92,133.516C294.46,132.726 304.99,131.146 315.29,128.756C324.23,126.676 332.97,124.046 341.29,120.136C351.94,115.126 362.46,106.846 367.34,95.846C369.65,90.646 371.19,85.196 370.97,79.436C370.76,73.996 369.38,68.836 366.8,64.036C362.11,55.346 352.94,48.816 343.25,47.046C330.65,44.746 318.12,48.056 307.33,54.766C302.12,58.016 297.43,62.056 292.64,65.886C288.65,69.076 284.65,72.256 280.63,75.416C278.92,76.756 277.21,78.086 275.49,79.416C262.65,89.316 249.56,98.886 236.13,107.976C223.32,105.186 210.91,101.006 198.74,95.976C188.42,91.576 178.31,86.696 168.35,81.546C182.63,75.996 196.58,69.536 210.2,62.576C229.8,52.576 248.83,41.486 267.61,30.026C272.51,27.036 277.4,24.016 282.27,20.976C287.26,17.866 289.66,10.796 286.31,5.586C283.08,0.586 276.26,-1.784 270.92,1.546C244.69,17.896 218.11,33.836 190.32,47.406C183.52,50.726 176.64,53.886 169.68,56.856C160.52,60.676 151.21,64.136 141.74,67.096C141.53,66.976 141.32,66.856 141.1,66.736C131.5,61.326 121.97,55.816 112.4,50.336C103.27,45.116 94.19,39.706 84.82,34.936C78.49,31.716 71.73,28.916 64.75,27.486C57.96,26.096 51.53,25.856 44.71,26.886C35.08,28.346 25.66,34.166 20.89,42.806C15.71,52.196 16.21,63.136 21.06,72.536C26.6,83.286 37.55,90.006 48.52,94.106C55.64,96.766 63.19,98.006 70.73,98.796C79.26,99.686 87.92,99.536 96.46,98.876C110.88,97.766 125.12,95.146 139.04,91.336C148.48,96.546 157.99,101.606 167.67,106.346C181.53,113.136 195.81,119.566 210.55,124.396C201.52,129.866 192.35,135.096 183,140.006C172.92,145.296 162.63,150.206 152.15,154.676C148.04,156.386 143.91,158.026 139.74,159.586C126.56,154.176 113.37,148.786 99.97,143.926C87.55,139.416 74.97,135.336 62.21,131.916C56.49,130.386 50.86,129.046 44.95,128.486C40.52,128.066 36.23,128.446 31.84,129.116C18.04,131.216 4.71,141.506 1.56,155.516C-0.13,163.036 0.87,170.466 4.33,177.336C7.62,183.876 13.73,189.266 20.17,192.566C29.14,197.166 39.07,199.036 49.08,199.426C61.29,199.906 73.57,198.636 85.65,196.956C103.97,194.406 121.93,189.716 139.38,183.586C153.42,189.376 167.47,195.126 181.83,200.076C204.22,207.786 227.39,212.606 251.12,213.056C275.44,213.516 300.1,209.746 323.18,202.056C347.18,194.056 369.37,182.056 389.19,166.376C391.48,164.566 393.72,162.706 395.92,160.796C400.38,156.926 400.18,148.796 395.92,144.886L395.91,144.906ZM308.07,82.176C310.13,80.526 312.18,78.866 314.25,77.236C317.48,74.846 320.9,72.716 324.55,71.016C327.07,70.036 329.66,69.286 332.32,68.816C334.06,68.676 335.8,68.666 337.55,68.816C338.86,69.076 340.15,69.426 341.41,69.876C342.38,70.356 343.31,70.906 344.2,71.516C344.92,72.156 345.61,72.836 346.24,73.556C346.76,74.336 347.23,75.146 347.66,75.976C347.98,76.896 348.23,77.836 348.43,78.796C348.5,79.826 348.5,80.866 348.43,81.896C348.18,83.136 347.85,84.346 347.43,85.536C346.71,87.016 345.87,88.436 344.93,89.786C343.27,91.766 341.42,93.566 339.42,95.206C336.14,97.556 332.61,99.516 328.93,101.186C317.68,105.756 305.44,108.346 293.43,110.056C285.66,111.036 277.84,111.536 270.02,111.516C282.94,102.036 295.57,92.186 308.09,82.186L308.07,82.176ZM68.92,76.076C63.75,75.266 58.66,74.016 53.78,72.126C50.99,70.866 48.32,69.366 45.84,67.586C44.51,66.456 43.26,65.226 42.12,63.886C41.46,62.916 40.86,61.916 40.34,60.866C40.06,60.046 39.83,59.216 39.65,58.376C39.61,57.696 39.61,57.026 39.65,56.346C39.78,55.746 39.94,55.146 40.14,54.556C40.43,54.006 40.74,53.476 41.08,52.956C41.57,52.416 42.09,51.896 42.64,51.416C43.43,50.886 44.26,50.416 45.12,49.986C46.53,49.486 47.97,49.096 49.44,48.816C52.02,48.586 54.61,48.626 57.19,48.896C61.32,49.606 65.34,50.826 69.24,52.366C76.3,55.486 82.99,59.516 89.71,63.306C96.44,67.106 103.15,70.956 109.85,74.806C108.47,75.036 107.1,75.246 105.72,75.446C93.58,76.986 81.14,77.576 68.96,76.096L68.92,76.076ZM80.1,175.206C73.67,176.026 67.21,176.596 60.73,176.856C54.88,177.086 49.01,177.146 43.19,176.486C39.69,175.916 36.24,175.066 32.91,173.816C31.04,172.946 29.24,171.926 27.55,170.746C26.68,169.986 25.86,169.166 25.1,168.296C24.62,167.576 24.18,166.836 23.79,166.066C23.55,165.356 23.36,164.636 23.2,163.906C23.16,163.186 23.16,162.466 23.2,161.746C23.37,160.936 23.59,160.146 23.86,159.366C24.28,158.546 24.75,157.756 25.26,156.986C25.99,156.156 26.76,155.386 27.59,154.656C28.75,153.856 29.97,153.146 31.23,152.526C33.05,151.856 34.91,151.346 36.82,151.006C39.73,150.726 42.66,150.776 45.57,151.086C50.47,151.916 55.29,153.346 60.07,154.686C66.58,156.506 73.05,158.486 79.46,160.606C88.37,163.546 97.19,166.766 105.95,170.136C102.45,171.006 98.95,171.826 95.42,172.556C90.34,173.606 85.22,174.486 80.08,175.216L80.1,175.206Z" style="fill:white;fill-rule:nonzero;"/>
</svg>
