<svg width="412" height="456" viewBox="0 0 412 456" fill="none" xmlns="http://www.w3.org/2000/svg">
<path d="M402.18 145.2C397.42 140.83 391.03 141.08 386.27 145.2C383.88 147.27 381.43 149.27 378.95 151.22C366.04 161.01 351.95 169.16 337.08 175.57C320.97 182.21 304.07 186.8 286.83 189.26C270.01 191.37 252.98 191.43 236.16 189.31C215.26 186.27 195.24 179.52 175.61 171.86C191.55 164.72 207.06 156.63 222.12 147.76C230.64 142.74 239.02 137.48 247.28 132.03C261.46 134.24 275.92 134.88 290.19 133.81C300.73 133.02 311.26 131.44 321.56 129.05C330.5 126.97 339.24 124.34 347.56 120.43C358.21 115.42 368.73 107.14 373.61 96.14C375.92 90.94 377.46 85.49 377.24 79.73C377.03 74.29 375.65 69.13 373.07 64.33C368.38 55.64 359.21 49.11 349.52 47.34C336.92 45.04 324.39 48.35 313.6 55.06C308.39 58.31 303.7 62.35 298.91 66.18C294.92 69.37 290.92 72.55 286.9 75.71C285.19 77.05 283.48 78.38 281.76 79.71C268.92 89.61 255.83 99.18 242.4 108.27C229.59 105.48 217.18 101.3 205.01 96.27C194.69 91.87 184.58 86.99 174.62 81.84C188.9 76.29 202.85 69.83 216.47 62.87C236.07 52.87 255.1 41.78 273.88 30.32C278.78 27.33 283.67 24.31 288.54 21.27C293.53 18.16 295.93 11.09 292.58 5.87998C289.35 0.879983 282.53 -1.48999 277.19 1.84001C250.96 18.19 224.38 34.13 196.59 47.7C189.79 51.02 182.91 54.18 175.95 57.15C166.79 60.97 157.48 64.43 148.01 67.39C147.8 67.27 147.59 67.15 147.37 67.03C137.77 61.62 128.24 56.11 118.67 50.63C109.54 45.41 100.46 40 91.09 35.23C84.76 32.01 78 29.21 71.02 27.78C64.23 26.39 57.8 26.15 50.98 27.18C41.35 28.64 31.93 34.46 27.16 43.1C21.98 52.49 22.48 63.43 27.33 72.83C32.87 83.58 43.82 90.3 54.79 94.4C61.91 97.06 69.46 98.3 77 99.09C85.53 99.98 94.19 99.83 102.73 99.17C117.15 98.06 131.39 95.44 145.31 91.63C154.75 96.84 164.26 101.9 173.94 106.64C187.8 113.43 202.08 119.86 216.82 124.69C207.79 130.16 198.62 135.39 189.27 140.3C179.19 145.59 168.9 150.5 158.42 154.97C154.31 156.68 150.18 158.32 146.01 159.88C132.83 154.47 119.64 149.08 106.24 144.22C93.82 139.71 81.24 135.63 68.48 132.21C62.76 130.68 57.13 129.34 51.22 128.78C46.79 128.36 42.5 128.74 38.11 129.41C24.31 131.51 10.9799 141.8 7.82995 155.81C6.13995 163.33 7.13997 170.76 10.6 177.63C13.89 184.17 19.9999 189.56 26.4399 192.86C35.4099 197.46 45.34 199.33 55.35 199.72C67.56 200.2 79.84 198.93 91.92 197.25C110.24 194.7 128.2 190.01 145.65 183.88C159.69 189.67 173.74 195.42 188.1 200.37C210.49 208.08 233.66 212.9 257.39 213.35C281.71 213.81 306.37 210.04 329.45 202.35C353.45 194.35 375.64 182.35 395.46 166.67C397.75 164.86 399.99 163 402.19 161.09C406.65 157.22 406.45 149.09 402.19 145.18L402.18 145.2ZM314.34 82.4699C316.4 80.8199 318.45 79.16 320.52 77.53C323.75 75.14 327.17 73.01 330.82 71.31C333.34 70.33 335.93 69.58 338.59 69.11C340.33 68.97 342.07 68.96 343.82 69.11C345.13 69.37 346.42 69.72 347.68 70.17C348.65 70.65 349.58 71.2 350.47 71.81C351.19 72.45 351.88 73.13 352.51 73.85C353.03 74.63 353.5 75.44 353.93 76.27C354.25 77.19 354.5 78.13 354.7 79.09C354.77 80.12 354.77 81.16 354.7 82.19C354.45 83.43 354.12 84.64 353.7 85.83C352.98 87.31 352.14 88.73 351.2 90.08C349.54 92.06 347.69 93.86 345.69 95.5C342.41 97.85 338.88 99.81 335.2 101.48C323.95 106.05 311.71 108.64 299.7 110.35C291.93 111.33 284.11 111.83 276.29 111.81C289.21 102.33 301.84 92.48 314.36 82.48L314.34 82.4699ZM75.1899 76.37C70.0199 75.56 64.93 74.31 60.05 72.42C57.26 71.16 54.59 69.66 52.11 67.88C50.78 66.75 49.53 65.52 48.39 64.18C47.73 63.21 47.13 62.21 46.61 61.16C46.33 60.34 46.1 59.51 45.92 58.67C45.88 57.99 45.88 57.32 45.92 56.64C46.05 56.04 46.21 55.44 46.41 54.85C46.7 54.3 47.01 53.77 47.35 53.25C47.84 52.71 48.36 52.19 48.91 51.71C49.7 51.18 50.53 50.71 51.39 50.28C52.8 49.78 54.24 49.39 55.71 49.11C58.29 48.88 60.88 48.92 63.46 49.19C67.59 49.9 71.61 51.12 75.51 52.66C82.57 55.78 89.26 59.81 95.98 63.6C102.71 67.4 109.42 71.25 116.12 75.1C114.74 75.33 113.37 75.54 111.99 75.74C99.85 77.28 87.41 77.87 75.23 76.39L75.1899 76.37ZM86.37 175.5C79.94 176.32 73.48 176.89 67 177.15C61.15 177.38 55.28 177.44 49.46 176.78C45.96 176.21 42.51 175.36 39.18 174.11C37.31 173.24 35.5099 172.22 33.8199 171.04C32.9499 170.28 32.13 169.46 31.37 168.59C30.89 167.87 30.4501 167.13 30.0601 166.36C29.8201 165.65 29.63 164.93 29.47 164.2C29.43 163.48 29.43 162.76 29.47 162.04C29.64 161.23 29.86 160.44 30.13 159.66C30.55 158.84 31.02 158.05 31.53 157.28C32.26 156.45 33.03 155.68 33.86 154.95C35.02 154.15 36.24 153.44 37.5 152.82C39.32 152.15 41.18 151.64 43.09 151.3C46 151.02 48.93 151.07 51.84 151.38C56.74 152.21 61.56 153.64 66.34 154.98C72.85 156.8 79.32 158.78 85.73 160.9C94.64 163.84 103.46 167.06 112.22 170.43C108.72 171.3 105.22 172.12 101.69 172.85C96.6099 173.9 91.49 174.78 86.35 175.51L86.37 175.5Z" fill="#4C61DF"/>
<path d="M0.810059 403.46C0.810059 374.25 32.35 358.17 53.6 355.46C53.98 355.41 54.27 355.09 54.27 354.7C54.27 354.32 53.99 354 53.62 353.94C32.54 350.84 9.31995 336.78 9.31995 312.43C9.31995 285.59 41.97 268.15 74.4 268.15C106.83 268.15 127.41 287.83 127.41 306.62C127.41 320.93 114.89 332.34 102.36 332.34C92.74 332.34 85.36 326.52 85.36 317.13C85.36 302.14 104.37 301.47 104.37 289.17C104.37 281.34 91.4 274.86 79.1 274.86C52.26 274.86 38.84 290.74 38.84 306.84C38.84 331.15 62.44 350.2 91.03 351.3C92.49 351.36 93.64 352.57 93.64 354.03C93.64 355.5 92.48 356.71 91.01 356.76C58.24 357.84 36.16 378.98 36.16 400.33C36.16 428.51 56.29 445.96 83.13 445.96C96.1 445.96 114.67 439.92 114.67 428.29C114.67 411.52 91.63 412.41 91.63 392.5C91.63 383.33 99.9101 376.17 111.31 376.17C126.74 376.17 137.25 390.71 137.25 407.93C137.25 430.74 114.66 455.12 69.71 455.12C36.16 455.12 0.819946 440.58 0.819946 403.46H0.810059Z" fill="#303030"/>
<path d="M184.99 390.75L191.49 396.37L167.11 429.75C165.44 431.92 164.75 433.77 165.05 435.31C165.34 436.85 166.78 438.12 169.36 439.12L174.11 440.37C175.61 441.04 176.69 441.75 177.36 442.49C178.03 443.24 178.36 444.16 178.36 445.24C178.36 446.74 177.86 447.93 176.86 448.8C175.86 449.67 174.36 450.11 172.36 450.11H143.86C142.19 450.11 140.84 449.67 139.8 448.8C138.76 447.92 138.24 446.7 138.24 445.11C138.24 444.03 138.59 443.05 139.3 442.17C140.01 441.29 141.32 440.44 143.24 439.61C145.16 438.94 146.88 438.07 148.43 436.99C149.97 435.91 151.49 434.51 152.99 432.8C154.49 431.09 156.24 429.03 158.24 426.61L184.99 390.73V390.75ZM182.87 359.37L204.75 389.62L206.63 392L236.25 432C238 434.5 239.6 436.36 241.06 437.56C242.52 438.77 244.25 439.71 246.25 440.37C247.75 440.95 248.79 441.64 249.37 442.43C249.95 443.22 250.25 444.16 250.25 445.24C250.25 446.82 249.77 448.03 248.81 448.86C247.85 449.69 246.45 450.11 244.62 450.11H204.24C202.32 450.11 200.82 449.69 199.74 448.86C198.66 448.03 198.12 446.82 198.12 445.24C198.12 444.07 198.39 443.16 198.93 442.49C199.47 441.82 200.37 441.24 201.62 440.74L206.5 439.36C208.58 438.86 209.71 438.07 209.88 436.98C210.05 435.9 209.59 434.56 208.5 432.98L184.38 399.98L182.5 397.36L155.12 359.98C153.37 357.56 151.68 355.73 150.06 354.48C148.44 353.23 146.58 352.27 144.5 351.6C143 351.02 141.92 350.29 141.25 349.41C140.58 348.53 140.25 347.52 140.25 346.35C140.25 344.77 140.77 343.58 141.81 342.79C142.85 342 144.25 341.6 146 341.6H186.75C188.58 341.6 190 342.02 191 342.85C192 343.68 192.5 344.85 192.5 346.35C192.5 347.6 192.27 348.58 191.81 349.29C191.35 350 190.5 350.65 189.25 351.23L184.5 352.35C182.5 352.93 181.38 353.79 181.12 354.91C180.86 356.03 181.45 357.52 182.87 359.35V359.37ZM203.25 398.75L196.87 393L219.37 362.12C221.12 359.79 221.85 357.83 221.56 356.24C221.27 354.66 219.79 353.41 217.12 352.49L212.37 351.37C210.79 350.7 209.7 349.98 209.12 349.18C208.54 348.39 208.24 347.45 208.24 346.37C208.24 344.87 208.74 343.7 209.74 342.87C210.74 342.04 212.16 341.62 213.99 341.62H242.61C244.28 341.62 245.59 342.02 246.55 342.81C247.51 343.6 247.99 344.83 247.99 346.5C247.99 347.58 247.66 348.56 246.99 349.44C246.32 350.32 245.03 351.13 243.11 351.88C240.19 353.05 237.71 354.59 235.67 356.5C233.63 358.42 231.15 361.33 228.23 365.25L203.23 398.75H203.25Z" fill="#303030"/>
<path d="M292.86 272.25V430.87C292.86 433.54 293.21 435.43 293.92 436.56C294.63 437.68 295.86 438.5 297.61 439L302.49 440C303.74 440.58 304.7 441.31 305.37 442.19C306.04 443.07 306.37 444.09 306.37 445.25C306.37 446.75 305.91 447.94 304.99 448.81C304.07 449.69 302.66 450.12 300.74 450.12H261.99C260.24 450.12 258.87 449.68 257.87 448.81C256.87 447.94 256.37 446.75 256.37 445.25C256.37 444.08 256.7 443.06 257.37 442.19C258.04 441.31 259.04 440.59 260.37 440L265.25 439C267 438.5 268.23 437.69 268.94 436.56C269.65 435.44 270 433.54 270 430.87V291.37C270 289.2 269.69 287.66 269.06 286.75C268.44 285.83 267.37 285.21 265.87 284.87L258.62 284.62C257.2 284.2 256.2 283.62 255.62 282.87C255.04 282.12 254.74 281.2 254.74 280.12C254.74 278.87 255.12 277.79 255.86 276.87C256.61 275.95 257.98 275.16 259.98 274.49L277.98 268.49C280.4 267.57 282.27 266.95 283.6 266.61C284.93 266.28 286.14 266.11 287.22 266.11C289.05 266.11 290.45 266.67 291.41 267.8C292.37 268.92 292.85 270.41 292.85 272.24L292.86 272.25Z" fill="#303030"/>
<path d="M411.36 380.88C411.36 385.13 410.24 388.38 407.98 390.63C405.72 392.88 402.44 394.01 398.1 394.01H330.23V385.01H381.35C385.52 385.01 387.6 382.93 387.6 378.76C387.6 370.18 385.48 363.32 381.22 358.2C376.96 353.08 371.43 350.51 364.6 350.51C359.1 350.51 354.18 352.07 349.85 355.2C345.52 358.32 342.14 362.82 339.73 368.7C337.31 374.58 336.11 381.6 336.11 389.76C336.11 404.76 339.53 416.2 346.36 424.07C353.19 431.95 362.11 435.88 373.11 435.88C380.78 435.88 387.28 433.96 392.61 430.13C397.94 426.3 401.69 421.67 403.86 416.25C404.69 415.08 405.48 414.25 406.24 413.75C407 413.25 407.74 413 408.49 413C409.49 413 410.3 413.42 410.93 414.25C411.55 415.08 411.78 416.21 411.62 417.63C411.12 423.71 408.93 429.4 405.06 434.69C401.18 439.98 395.98 444.3 389.44 447.63C382.9 450.96 375.25 452.63 366.5 452.63C355.92 452.63 346.77 450.3 339.06 445.63C331.35 440.96 325.39 434.44 321.18 426.07C316.97 417.69 314.87 407.93 314.87 396.76C314.87 385.59 316.97 376.01 321.18 367.26C325.39 358.51 331.43 351.64 339.3 346.64C347.17 341.64 356.69 339.14 367.86 339.14C376.53 339.14 384.11 340.93 390.61 344.52C397.11 348.1 402.19 353.06 405.86 359.4C409.53 365.73 411.36 372.9 411.36 380.9V380.88Z" fill="#303030"/>
</svg>
