<svg width="414" height="414" viewBox="0 0 414 414" fill="none" xmlns="http://www.w3.org/2000/svg">
<path d="M88.32 273.966V274.216C88.32 281.806 82.17 287.956 74.58 287.956H44.16C36.57 287.956 30.42 294.106 30.42 301.696V308.566C30.42 316.156 36.57 322.306 44.16 322.306H69.67C77.26 322.306 83.41 328.456 83.41 336.046C83.41 343.636 77.26 349.786 69.67 349.786H44.16C36.57 349.786 30.42 355.936 30.42 363.526V372.116C30.42 379.706 36.57 385.856 44.16 385.856H74.34C81.93 385.856 88.08 392.006 88.08 399.596C88.08 407.186 81.93 413.336 74.34 413.336H13.74C6.15 413.336 0 407.186 0 399.596V273.986C0 266.396 6.15 260.246 13.74 260.246H74.58C82.17 260.246 88.32 266.396 88.32 273.986V273.966Z" fill="#2B2A47"/>
<path d="M134.91 268.286L148.18 297.516C149.62 300.696 154.14 300.716 155.61 297.546L169.26 268.176C171.51 263.326 176.37 260.226 181.72 260.226H181.92C192.12 260.226 198.77 270.956 194.22 280.096L178.21 312.216C171.51 325.666 171.53 341.486 178.26 354.916L197.57 393.416C202.15 402.556 195.51 413.316 185.29 413.316H183C177.63 413.316 172.75 410.186 170.51 405.306L154.61 370.666C153.15 367.486 148.62 367.496 147.17 370.676L131.47 405.246C129.24 410.156 124.35 413.306 118.96 413.306H118.33C108.13 413.306 101.49 402.586 106.03 393.456L124.83 355.626C131.5 342.206 131.48 326.436 124.78 313.026L108.32 280.106C103.75 270.976 110.4 260.226 120.61 260.226H122.4C127.79 260.226 132.68 263.376 134.91 268.286Z" fill="#2B2A47"/>
<path d="M251.7 273.966V372.096C251.7 379.686 257.85 385.836 265.44 385.836H296.11C303.7 385.836 309.85 391.986 309.85 399.576C309.85 407.166 303.7 413.316 296.11 413.316H235.02C227.43 413.316 221.28 407.166 221.28 399.576V273.966C221.28 266.376 227.43 260.226 235.02 260.226H237.96C245.55 260.226 251.7 266.376 251.7 273.966Z" fill="#2B2A47"/>
<path d="M413.86 273.966V274.216C413.86 281.806 407.71 287.956 400.12 287.956H369.7C362.11 287.956 355.96 294.106 355.96 301.696V308.566C355.96 316.156 362.11 322.306 369.7 322.306H395.21C402.8 322.306 408.95 328.456 408.95 336.046C408.95 343.636 402.8 349.786 395.21 349.786H369.7C362.11 349.786 355.96 355.936 355.96 363.526V372.116C355.96 379.706 362.11 385.856 369.7 385.856H399.88C407.47 385.856 413.62 392.006 413.62 399.596C413.62 407.186 407.47 413.336 399.88 413.336H339.28C331.69 413.336 325.54 407.186 325.54 399.596V273.986C325.54 266.396 331.69 260.246 339.28 260.246H400.12C407.71 260.246 413.86 266.396 413.86 273.986V273.966Z" fill="#2B2A47"/>
<path d="M402.91 144.906C398.15 140.536 391.76 140.786 387 144.906C384.61 146.976 382.16 148.976 379.68 150.926C366.77 160.716 352.68 168.866 337.81 175.276C321.7 181.916 304.8 186.506 287.56 188.966C270.74 191.076 253.71 191.136 236.89 189.016C215.99 185.976 195.97 179.226 176.34 171.566C192.28 164.426 207.79 156.336 222.85 147.466C231.37 142.446 239.75 137.186 248.01 131.736C262.19 133.946 276.65 134.586 290.92 133.516C301.46 132.726 311.99 131.146 322.29 128.756C331.23 126.676 339.97 124.046 348.29 120.136C358.94 115.126 369.46 106.846 374.34 95.8464C376.65 90.6464 378.19 85.1964 377.97 79.4363C377.76 73.9963 376.38 68.8364 373.8 64.0364C369.11 55.3464 359.94 48.8164 350.25 47.0464C337.65 44.7464 325.12 48.0564 314.33 54.7664C309.12 58.0164 304.43 62.0564 299.64 65.8864C295.65 69.0764 291.65 72.2563 287.63 75.4163C285.92 76.7563 284.21 78.0863 282.49 79.4163C269.65 89.3163 256.56 98.8863 243.13 107.976C230.32 105.186 217.91 101.006 205.74 95.9763C195.42 91.5763 185.31 86.6963 175.35 81.5463C189.63 75.9963 203.58 69.5364 217.2 62.5764C236.8 52.5764 255.83 41.4863 274.61 30.0263C279.51 27.0363 284.4 24.0164 289.27 20.9764C294.26 17.8664 296.66 10.7963 293.31 5.58634C290.08 0.586339 283.26 -1.78363 277.92 1.54637C251.69 17.8964 225.11 33.8363 197.32 47.4063C190.52 50.7263 183.64 53.8863 176.68 56.8563C167.52 60.6763 158.21 64.1364 148.74 67.0964C148.53 66.9764 148.32 66.8563 148.1 66.7363C138.5 61.3263 128.97 55.8164 119.4 50.3364C110.27 45.1164 101.19 39.7063 91.8201 34.9363C85.4901 31.7163 78.7301 28.9164 71.7501 27.4864C64.9601 26.0964 58.5301 25.8564 51.7101 26.8864C42.0801 28.3464 32.6601 34.1663 27.8901 42.8063C22.7101 52.1963 23.2101 63.1364 28.0601 72.5364C33.6001 83.2864 44.5501 90.0063 55.5201 94.1063C62.6401 96.7663 70.1901 98.0063 77.7301 98.7963C86.2601 99.6863 94.9201 99.5364 103.46 98.8764C117.88 97.7663 132.12 95.1464 146.04 91.3364C155.48 96.5464 164.99 101.606 174.67 106.346C188.53 113.136 202.81 119.566 217.55 124.396C208.52 129.866 199.35 135.096 190 140.006C179.92 145.296 169.63 150.206 159.15 154.676C155.04 156.386 150.91 158.026 146.74 159.586C133.56 154.176 120.37 148.786 106.97 143.926C94.5501 139.416 81.9701 135.336 69.2101 131.916C63.4901 130.386 57.8601 129.046 51.9501 128.486C47.5201 128.066 43.2301 128.446 38.8401 129.116C25.0401 131.216 11.7101 141.506 8.56006 155.516C6.87006 163.036 7.87006 170.466 11.3301 177.336C14.6201 183.876 20.7301 189.266 27.1701 192.566C36.1401 197.166 46.0701 199.036 56.0801 199.426C68.2901 199.906 80.5701 198.636 92.6501 196.956C110.97 194.406 128.93 189.716 146.38 183.586C160.42 189.376 174.47 195.126 188.83 200.076C211.22 207.786 234.39 212.606 258.12 213.056C282.44 213.516 307.1 209.746 330.18 202.056C354.18 194.056 376.37 182.056 396.19 166.376C398.48 164.566 400.72 162.706 402.92 160.796C407.38 156.926 407.18 148.796 402.92 144.886L402.91 144.906ZM315.07 82.1763C317.13 80.5263 319.18 78.8663 321.25 77.2363C324.48 74.8463 327.9 72.7164 331.55 71.0164C334.07 70.0364 336.66 69.2864 339.32 68.8164C341.06 68.6764 342.8 68.6664 344.55 68.8164C345.86 69.0764 347.15 69.4264 348.41 69.8764C349.38 70.3564 350.31 70.9064 351.2 71.5164C351.92 72.1564 352.61 72.8363 353.24 73.5563C353.76 74.3363 354.23 75.1463 354.66 75.9763C354.98 76.8963 355.23 77.8363 355.43 78.7963C355.5 79.8263 355.5 80.8664 355.43 81.8964C355.18 83.1364 354.85 84.3464 354.43 85.5364C353.71 87.0164 352.87 88.4364 351.93 89.7864C350.27 91.7664 348.42 93.5664 346.42 95.2064C343.14 97.5564 339.61 99.5163 335.93 101.186C324.68 105.756 312.44 108.346 300.43 110.056C292.66 111.036 284.84 111.536 277.02 111.516C289.94 102.036 302.57 92.1863 315.09 82.1863L315.07 82.1763ZM75.9201 76.0764C70.7501 75.2664 65.6601 74.0163 60.7801 72.1264C57.9901 70.8663 55.3201 69.3664 52.8401 67.5864C51.5101 66.4564 50.2601 65.2264 49.1201 63.8864C48.4601 62.9164 47.8601 61.9163 47.3401 60.8663C47.0601 60.0463 46.8301 59.2164 46.6501 58.3764C46.6101 57.6964 46.6101 57.0264 46.6501 56.3464C46.7801 55.7464 46.9401 55.1463 47.1401 54.5563C47.4301 54.0063 47.7401 53.4764 48.0801 52.9564C48.5701 52.4164 49.0901 51.8963 49.6401 51.4163C50.4301 50.8863 51.2601 50.4163 52.1201 49.9863C53.5301 49.4863 54.9701 49.0964 56.4401 48.8164C59.0201 48.5864 61.6101 48.6264 64.1901 48.8964C68.3201 49.6064 72.34 50.8263 76.2401 52.3663C83.3 55.4863 89.9901 59.5163 96.7101 63.3063C103.44 67.1063 110.15 70.9563 116.85 74.8063C115.47 75.0363 114.1 75.2464 112.72 75.4464C100.58 76.9864 88.1401 77.5764 75.9601 76.0964L75.9201 76.0764ZM87.1001 175.206C80.6701 176.026 74.2101 176.596 67.7301 176.856C61.8801 177.086 56.0101 177.146 50.1901 176.486C46.6901 175.916 43.2401 175.066 39.9101 173.816C38.0401 172.946 36.2401 171.926 34.5501 170.746C33.6801 169.986 32.8601 169.166 32.1001 168.296C31.6201 167.576 31.1801 166.836 30.7901 166.066C30.5501 165.356 30.3601 164.636 30.2001 163.906C30.1601 163.186 30.1601 162.466 30.2001 161.746C30.3701 160.936 30.5901 160.146 30.8601 159.366C31.2801 158.546 31.7501 157.756 32.2601 156.986C32.9901 156.156 33.7601 155.386 34.5901 154.656C35.7501 153.856 36.9701 153.146 38.2301 152.526C40.0501 151.856 41.9101 151.346 43.8201 151.006C46.7301 150.726 49.6601 150.776 52.5701 151.086C57.4701 151.916 62.2901 153.346 67.0701 154.686C73.5801 156.506 80.05 158.486 86.4601 160.606C95.3701 163.546 104.19 166.766 112.95 170.136C109.45 171.006 105.95 171.826 102.42 172.556C97.34 173.606 92.2201 174.486 87.0801 175.216L87.1001 175.206Z" fill="#4C61DF"/>
</svg>
