<svg width="884" height="214" viewBox="0 0 884 214" fill="none" xmlns="http://www.w3.org/2000/svg">
<path d="M396.1 145.19C391.34 140.82 384.95 141.07 380.19 145.19C377.8 147.26 375.35 149.26 372.87 151.21C359.96 161 345.87 169.15 331 175.56C314.89 182.2 297.99 186.79 280.75 189.25C263.93 191.36 246.9 191.42 230.08 189.3C209.18 186.26 189.16 179.51 169.53 171.85C185.47 164.71 200.98 156.62 216.04 147.75C224.56 142.73 232.94 137.47 241.2 132.02C255.38 134.23 269.84 134.87 284.11 133.8C294.65 133.01 305.18 131.43 315.48 129.04C324.42 126.96 333.16 124.33 341.48 120.42C352.13 115.41 362.65 107.13 367.53 96.13C369.84 90.93 371.38 85.4799 371.16 79.7199C370.95 74.2799 369.57 69.1199 366.99 64.3199C362.3 55.6299 353.13 49.0999 343.44 47.3299C330.84 45.0299 318.31 48.34 307.52 55.05C302.31 58.3 297.62 62.34 292.83 66.17C288.84 69.36 284.84 72.5399 280.82 75.6999C279.11 77.0399 277.4 78.3699 275.68 79.6999C262.84 89.5999 249.75 99.17 236.32 108.26C223.51 105.47 211.1 101.29 198.93 96.26C188.61 91.86 178.5 86.9799 168.54 81.8299C182.82 76.2799 196.77 69.8199 210.39 62.8599C229.99 52.8599 249.02 41.77 267.8 30.31C272.7 27.32 277.59 24.3 282.46 21.26C287.45 18.15 289.85 11.08 286.5 5.86996C283.27 0.869959 276.45 -1.50008 271.11 1.82992C244.88 18.1799 218.3 34.1199 190.51 47.6899C183.71 51.0099 176.83 54.17 169.87 57.14C160.71 60.96 151.4 64.42 141.93 67.38C141.72 67.26 141.51 67.14 141.29 67.02C131.69 61.61 122.16 56.1 112.59 50.62C103.46 45.4 94.3799 39.9899 85.0099 35.2199C78.6799 31.9999 71.9199 29.2 64.9399 27.77C58.1499 26.38 51.7199 26.14 44.8999 27.17C35.2699 28.63 25.8499 34.4499 21.0799 43.0899C15.8999 52.4799 16.3999 63.4199 21.2499 72.8199C26.7899 83.5699 37.7399 90.29 48.7099 94.39C55.8299 97.05 63.3799 98.2899 70.9199 99.0799C79.4499 99.9699 88.1099 99.82 96.6499 99.16C111.07 98.05 125.31 95.43 139.23 91.62C148.67 96.83 158.18 101.89 167.86 106.63C181.72 113.42 196 119.85 210.74 124.68C201.71 130.15 192.54 135.38 183.19 140.29C173.11 145.58 162.82 150.49 152.34 154.96C148.23 156.67 144.1 158.31 139.93 159.87C126.75 154.46 113.56 149.07 100.16 144.21C87.7399 139.7 75.1599 135.62 62.3999 132.2C56.6799 130.67 51.0499 129.33 45.1399 128.77C40.7099 128.35 36.4199 128.73 32.0299 129.4C18.2299 131.5 4.89988 141.79 1.74988 155.8C0.0598789 163.32 1.05987 170.75 4.51987 177.62C7.80987 184.16 13.9199 189.55 20.3599 192.85C29.3299 197.45 39.2599 199.32 49.2699 199.71C61.4799 200.19 73.7599 198.92 85.8399 197.24C104.16 194.69 122.12 190 139.57 183.87C153.61 189.66 167.66 195.41 182.02 200.36C204.41 208.07 227.58 212.89 251.31 213.34C275.63 213.8 300.29 210.03 323.37 202.34C347.37 194.34 369.56 182.34 389.38 166.66C391.67 164.85 393.91 162.99 396.11 161.08C400.57 157.21 400.37 149.08 396.11 145.17L396.1 145.19ZM308.26 82.4599C310.32 80.8099 312.37 79.15 314.44 77.52C317.67 75.13 321.09 73 324.74 71.3C327.26 70.32 329.85 69.5699 332.51 69.0999C334.25 68.9599 335.99 68.9499 337.74 69.0999C339.05 69.3599 340.34 69.71 341.6 70.16C342.57 70.64 343.5 71.19 344.39 71.8C345.11 72.44 345.8 73.1199 346.43 73.8399C346.95 74.6199 347.42 75.43 347.85 76.26C348.17 77.18 348.42 78.1199 348.62 79.0799C348.69 80.1099 348.69 81.15 348.62 82.18C348.37 83.42 348.04 84.6299 347.62 85.8199C346.9 87.2999 346.06 88.7199 345.12 90.0699C343.46 92.0499 341.61 93.85 339.61 95.49C336.33 97.84 332.8 99.7999 329.12 101.47C317.87 106.04 305.63 108.63 293.62 110.34C285.85 111.32 278.03 111.82 270.21 111.8C283.13 102.32 295.76 92.4699 308.28 82.4699L308.26 82.4599ZM69.1099 76.3599C63.9399 75.5499 58.8499 74.3 53.9699 72.41C51.1799 71.15 48.5099 69.65 46.0299 67.87C44.6999 66.74 43.4499 65.51 42.3099 64.17C41.6499 63.2 41.0499 62.2 40.5299 61.15C40.2499 60.33 40.0199 59.5 39.8399 58.66C39.7999 57.98 39.7999 57.31 39.8399 56.63C39.9699 56.03 40.1299 55.4299 40.3299 54.8399C40.6199 54.2899 40.9299 53.76 41.2699 53.24C41.7599 52.7 42.2799 52.1799 42.8299 51.6999C43.6199 51.1699 44.4499 50.7 45.3099 50.27C46.7199 49.77 48.1599 49.3799 49.6299 49.0999C52.2099 48.8699 54.7999 48.91 57.3799 49.18C61.5099 49.89 65.5299 51.11 69.4299 52.65C76.4899 55.77 83.1799 59.7999 89.8999 63.5899C96.6299 67.3899 103.34 71.2399 110.04 75.0899C108.66 75.3199 107.29 75.5299 105.91 75.7299C93.7699 77.2699 81.3299 77.86 69.1499 76.38L69.1099 76.3599ZM80.2899 175.49C73.8599 176.31 67.3999 176.88 60.9199 177.14C55.0699 177.37 49.1999 177.43 43.3799 176.77C39.8799 176.2 36.4299 175.35 33.0999 174.1C31.2299 173.23 29.4299 172.21 27.7399 171.03C26.8699 170.27 26.0499 169.45 25.2899 168.58C24.8099 167.86 24.3699 167.12 23.9799 166.35C23.7399 165.64 23.5499 164.92 23.3899 164.19C23.3499 163.47 23.3499 162.75 23.3899 162.03C23.5599 161.22 23.7799 160.43 24.0499 159.65C24.4699 158.83 24.9399 158.04 25.4499 157.27C26.1799 156.44 26.9499 155.67 27.7799 154.94C28.9399 154.14 30.1599 153.43 31.4199 152.81C33.2399 152.14 35.0999 151.63 37.0099 151.29C39.9199 151.01 42.8499 151.06 45.7599 151.37C50.6599 152.2 55.4799 153.63 60.2599 154.97C66.7699 156.79 73.2399 158.77 79.6499 160.89C88.5599 163.83 97.3799 167.05 106.14 170.42C102.64 171.29 99.1399 172.11 95.6099 172.84C90.5299 173.89 85.4099 174.77 80.2699 175.5L80.2899 175.49Z" fill="#303030"/>
<path d="M472.8 153.15C472.8 123.94 504.34 107.86 525.59 105.15C525.97 105.1 526.26 104.78 526.26 104.39C526.26 104.01 525.98 103.69 525.61 103.63C504.53 100.53 481.31 86.47 481.31 62.12C481.31 35.28 513.96 17.84 546.39 17.84C578.82 17.84 599.4 37.5201 599.4 56.3101C599.4 70.6201 586.88 82.03 574.35 82.03C564.73 82.03 557.35 76.2099 557.35 66.8199C557.35 51.8299 576.36 51.16 576.36 38.86C576.36 31.03 563.39 24.55 551.09 24.55C524.25 24.55 510.83 40.43 510.83 56.53C510.83 80.84 534.43 99.89 563.02 100.99C564.48 101.05 565.63 102.26 565.63 103.72C565.63 105.19 564.47 106.4 563 106.45C530.23 107.53 508.15 128.67 508.15 150.02C508.15 178.2 528.28 195.65 555.12 195.65C568.09 195.65 586.66 189.61 586.66 177.98C586.66 161.21 563.62 162.1 563.62 142.19C563.62 133.02 571.9 125.86 583.3 125.86C598.73 125.86 609.24 140.4 609.24 157.62C609.24 180.43 586.65 204.81 541.7 204.81C508.15 204.81 472.81 190.27 472.81 153.15H472.8Z" fill="#303030"/>
<path d="M656.98 140.44L663.48 146.06L639.1 179.44C637.43 181.61 636.74 183.46 637.04 185C637.33 186.54 638.77 187.81 641.35 188.81L646.1 190.06C647.6 190.73 648.68 191.44 649.35 192.18C650.02 192.93 650.35 193.85 650.35 194.93C650.35 196.43 649.85 197.62 648.85 198.49C647.85 199.36 646.35 199.8 644.35 199.8H615.85C614.18 199.8 612.83 199.36 611.79 198.49C610.75 197.61 610.23 196.39 610.23 194.8C610.23 193.72 610.58 192.74 611.29 191.86C612 190.98 613.31 190.13 615.23 189.3C617.15 188.63 618.87 187.76 620.42 186.68C621.96 185.6 623.48 184.2 624.98 182.49C626.48 180.78 628.23 178.72 630.23 176.3L656.98 140.42V140.44ZM654.86 109.06L676.74 139.31L678.62 141.69L708.24 181.69C709.99 184.19 711.59 186.05 713.05 187.25C714.51 188.46 716.24 189.4 718.24 190.06C719.74 190.64 720.78 191.33 721.36 192.12C721.94 192.91 722.24 193.85 722.24 194.93C722.24 196.51 721.76 197.72 720.8 198.55C719.84 199.38 718.44 199.8 716.61 199.8H676.23C674.31 199.8 672.81 199.38 671.73 198.55C670.65 197.72 670.11 196.51 670.11 194.93C670.11 193.76 670.38 192.85 670.92 192.18C671.46 191.51 672.36 190.93 673.61 190.43L678.49 189.05C680.57 188.55 681.7 187.76 681.87 186.67C682.04 185.59 681.58 184.25 680.49 182.67L656.37 149.67L654.49 147.05L627.11 109.67C625.36 107.25 623.67 105.42 622.05 104.17C620.43 102.92 618.57 101.96 616.49 101.29C614.99 100.71 613.91 99.98 613.24 99.1C612.57 98.22 612.24 97.21 612.24 96.04C612.24 94.46 612.76 93.27 613.8 92.48C614.84 91.69 616.24 91.29 617.99 91.29H658.74C660.57 91.29 661.99 91.71 662.99 92.54C663.99 93.37 664.49 94.54 664.49 96.04C664.49 97.29 664.26 98.27 663.8 98.98C663.34 99.69 662.49 100.34 661.24 100.92L656.49 102.04C654.49 102.62 653.37 103.48 653.11 104.6C652.85 105.72 653.44 107.21 654.86 109.04V109.06ZM675.24 148.44L668.86 142.69L691.36 111.81C693.11 109.48 693.84 107.52 693.55 105.93C693.26 104.35 691.78 103.1 689.11 102.18L684.36 101.06C682.78 100.39 681.69 99.67 681.11 98.87C680.53 98.08 680.23 97.1401 680.23 96.0601C680.23 94.5601 680.73 93.3901 681.73 92.5601C682.73 91.7301 684.15 91.3101 685.98 91.3101H714.6C716.27 91.3101 717.58 91.71 718.54 92.5C719.5 93.29 719.98 94.5199 719.98 96.1899C719.98 97.2699 719.65 98.25 718.98 99.13C718.31 100.01 717.02 100.82 715.1 101.57C712.18 102.74 709.7 104.28 707.66 106.19C705.62 108.11 703.14 111.02 700.22 114.94L675.22 148.44H675.24Z" fill="#303030"/>
<path d="M764.86 21.9399V180.56C764.86 183.23 765.21 185.12 765.92 186.25C766.63 187.37 767.86 188.19 769.61 188.69L774.49 189.69C775.74 190.27 776.7 191 777.37 191.88C778.04 192.76 778.37 193.78 778.37 194.94C778.37 196.44 777.91 197.63 776.99 198.5C776.07 199.38 774.66 199.81 772.74 199.81H733.99C732.24 199.81 730.87 199.37 729.87 198.5C728.87 197.63 728.37 196.44 728.37 194.94C728.37 193.77 728.7 192.75 729.37 191.88C730.04 191 731.04 190.28 732.37 189.69L737.25 188.69C739 188.19 740.23 187.38 740.94 186.25C741.65 185.13 742 183.23 742 180.56V41.0601C742 38.8901 741.69 37.3499 741.06 36.4399C740.44 35.5199 739.37 34.9001 737.87 34.5601L730.62 34.3101C729.2 33.8901 728.2 33.3101 727.62 32.5601C727.04 31.8101 726.74 30.8901 726.74 29.8101C726.74 28.5601 727.12 27.4801 727.86 26.5601C728.61 25.6401 729.98 24.8501 731.98 24.1801L749.98 18.1801C752.4 17.2601 754.27 16.64 755.6 16.3C756.93 15.97 758.14 15.8 759.22 15.8C761.05 15.8 762.45 16.36 763.41 17.49C764.37 18.61 764.85 20.1001 764.85 21.9301L764.86 21.9399Z" fill="#303030"/>
<path d="M883.35 130.57C883.35 134.82 882.23 138.07 879.97 140.32C877.71 142.57 874.43 143.7 870.09 143.7H802.22V134.7H853.34C857.51 134.7 859.59 132.62 859.59 128.45C859.59 119.87 857.47 113.01 853.21 107.89C848.95 102.77 843.42 100.2 836.59 100.2C831.09 100.2 826.17 101.76 821.84 104.89C817.51 108.01 814.13 112.51 811.72 118.39C809.3 124.27 808.1 131.29 808.1 139.45C808.1 154.45 811.52 165.89 818.35 173.76C825.18 181.64 834.1 185.57 845.1 185.57C852.77 185.57 859.27 183.65 864.6 179.82C869.93 175.99 873.68 171.36 875.85 165.94C876.68 164.77 877.47 163.94 878.23 163.44C878.99 162.94 879.73 162.69 880.48 162.69C881.48 162.69 882.29 163.11 882.92 163.94C883.54 164.77 883.77 165.9 883.61 167.32C883.11 173.4 880.92 179.09 877.05 184.38C873.17 189.67 867.97 193.99 861.43 197.32C854.89 200.65 847.24 202.32 838.49 202.32C827.91 202.32 818.76 199.99 811.05 195.32C803.34 190.65 797.38 184.13 793.17 175.76C788.96 167.38 786.86 157.62 786.86 146.45C786.86 135.28 788.96 125.7 793.17 116.95C797.38 108.2 803.42 101.33 811.29 96.33C819.16 91.33 828.68 88.83 839.85 88.83C848.52 88.83 856.1 90.62 862.6 94.21C869.1 97.79 874.18 102.75 877.85 109.09C881.52 115.42 883.35 122.59 883.35 130.59V130.57Z" fill="#303030"/>
</svg>
