<svg width="884" height="214" viewBox="0 0 884 214" fill="none" xmlns="http://www.w3.org/2000/svg">
<path d="M557.87 43.7463V43.9963C557.87 51.5863 551.72 57.7363 544.13 57.7363H513.71C506.12 57.7363 499.97 63.8863 499.97 71.4763V78.3463C499.97 85.9363 506.12 92.0863 513.71 92.0863H539.22C546.81 92.0863 552.96 98.2363 552.96 105.826C552.96 113.416 546.81 119.566 539.22 119.566H513.71C506.12 119.566 499.97 125.716 499.97 133.306V141.896C499.97 149.486 506.12 155.636 513.71 155.636H543.89C551.48 155.636 557.63 161.786 557.63 169.376C557.63 176.966 551.48 183.116 543.89 183.116H483.29C475.7 183.116 469.55 176.966 469.55 169.376V43.7463C469.55 36.1563 475.7 30.0063 483.29 30.0063H544.13C551.72 30.0063 557.87 36.1563 557.87 43.7463Z" fill="#2B2A47"/>
<path d="M604.45 38.0663L617.72 67.2963C619.16 70.4763 623.68 70.4963 625.15 67.3263L638.8 37.9563C641.05 33.1063 645.91 30.0063 651.26 30.0063H651.46C661.66 30.0063 668.31 40.7363 663.76 49.8763L647.75 81.9963C641.05 95.4463 641.07 111.266 647.8 124.696L667.11 163.196C671.69 172.336 665.05 183.096 654.83 183.096H652.54C647.17 183.096 642.29 179.966 640.05 175.086L624.15 140.446C622.69 137.266 618.16 137.276 616.71 140.456L601.01 175.026C598.78 179.936 593.89 183.086 588.5 183.086H587.87C577.67 183.086 571.03 172.366 575.57 163.236L594.37 125.406C601.04 111.986 601.02 96.2163 594.32 82.8063L577.86 49.8863C573.29 40.7563 579.94 30.0063 590.15 30.0063H591.94C597.33 30.0063 602.22 33.1563 604.45 38.0663V38.0663Z" fill="#2B2A47"/>
<path d="M721.25 43.7463V141.876C721.25 149.466 727.4 155.616 734.99 155.616H765.66C773.25 155.616 779.4 161.766 779.4 169.356C779.4 176.946 773.25 183.096 765.66 183.096H704.57C696.98 183.096 690.83 176.946 690.83 169.356V43.7463C690.83 36.1563 696.98 30.0063 704.57 30.0063H707.51C715.1 30.0063 721.25 36.1563 721.25 43.7463Z" fill="#2B2A47"/>
<path d="M883.41 43.7463V43.9963C883.41 51.5863 877.26 57.7363 869.67 57.7363H839.25C831.66 57.7363 825.51 63.8863 825.51 71.4763V78.3463C825.51 85.9363 831.66 92.0863 839.25 92.0863H864.76C872.35 92.0863 878.5 98.2363 878.5 105.826C878.5 113.416 872.35 119.566 864.76 119.566H839.25C831.66 119.566 825.51 125.716 825.51 133.306V141.896C825.51 149.486 831.66 155.636 839.25 155.636H869.43C877.02 155.636 883.17 161.786 883.17 169.376C883.17 176.966 877.02 183.116 869.43 183.116H808.83C801.24 183.116 795.09 176.966 795.09 169.376V43.7463C795.09 36.1563 801.24 30.0063 808.83 30.0063H869.67C877.26 30.0063 883.41 36.1563 883.41 43.7463Z" fill="#2B2A47"/>
<path d="M395.91 144.906C391.15 140.536 384.76 140.786 380 144.906C377.61 146.976 375.16 148.976 372.68 150.926C359.77 160.716 345.68 168.866 330.81 175.276C314.7 181.916 297.8 186.506 280.56 188.966C263.74 191.076 246.71 191.136 229.89 189.016C208.99 185.976 188.97 179.226 169.34 171.566C185.28 164.426 200.79 156.336 215.85 147.466C224.37 142.446 232.75 137.186 241.01 131.736C255.19 133.946 269.65 134.586 283.92 133.516C294.46 132.726 304.99 131.146 315.29 128.756C324.23 126.676 332.97 124.046 341.29 120.136C351.94 115.126 362.46 106.846 367.34 95.8464C369.65 90.6464 371.19 85.1964 370.97 79.4364C370.76 73.9964 369.38 68.8364 366.8 64.0364C362.11 55.3464 352.94 48.8164 343.25 47.0464C330.65 44.7464 318.12 48.0564 307.33 54.7664C302.12 58.0164 297.43 62.0564 292.64 65.8864C288.65 69.0764 284.65 72.2564 280.63 75.4164C278.92 76.7564 277.21 78.0864 275.49 79.4164C262.65 89.3164 249.56 98.8864 236.13 107.976C223.32 105.186 210.91 101.006 198.74 95.9764C188.42 91.5764 178.31 86.6964 168.35 81.5464C182.63 75.9964 196.58 69.5364 210.2 62.5764C229.8 52.5764 248.83 41.4864 267.61 30.0264C272.51 27.0364 277.4 24.0164 282.27 20.9764C287.26 17.8664 289.66 10.7964 286.31 5.58636C283.08 0.58636 276.26 -1.78364 270.92 1.54636C244.69 17.8964 218.11 33.8364 190.32 47.4064C183.52 50.7264 176.64 53.8864 169.68 56.8564C160.52 60.6764 151.21 64.1364 141.74 67.0964C141.53 66.9764 141.32 66.8564 141.1 66.7364C131.5 61.3264 121.97 55.8164 112.4 50.3364C103.27 45.1164 94.19 39.7064 84.82 34.9364C78.49 31.7164 71.73 28.9164 64.75 27.4864C57.96 26.0964 51.53 25.8564 44.71 26.8864C35.08 28.3464 25.66 34.1664 20.89 42.8064C15.71 52.1964 16.21 63.1364 21.06 72.5364C26.6 83.2864 37.55 90.0064 48.52 94.1064C55.64 96.7664 63.19 98.0064 70.73 98.7964C79.26 99.6864 87.92 99.5364 96.46 98.8764C110.88 97.7664 125.12 95.1464 139.04 91.3364C148.48 96.5464 157.99 101.606 167.67 106.346C181.53 113.136 195.81 119.566 210.55 124.396C201.52 129.866 192.35 135.096 183 140.006C172.92 145.296 162.63 150.206 152.15 154.676C148.04 156.386 143.91 158.026 139.74 159.586C126.56 154.176 113.37 148.786 99.97 143.926C87.55 139.416 74.97 135.336 62.21 131.916C56.49 130.386 50.86 129.046 44.95 128.486C40.52 128.066 36.23 128.446 31.84 129.116C18.04 131.216 4.71 141.506 1.56 155.516C-0.130004 163.036 0.869996 170.466 4.33 177.336C7.62 183.876 13.73 189.266 20.17 192.566C29.14 197.166 39.07 199.036 49.08 199.426C61.29 199.906 73.57 198.636 85.65 196.956C103.97 194.406 121.93 189.716 139.38 183.586C153.42 189.376 167.47 195.126 181.83 200.076C204.22 207.786 227.39 212.606 251.12 213.056C275.44 213.516 300.1 209.746 323.18 202.056C347.18 194.056 369.37 182.056 389.19 166.376C391.48 164.566 393.72 162.706 395.92 160.796C400.38 156.926 400.18 148.796 395.92 144.886L395.91 144.906ZM308.07 82.1764C310.13 80.5264 312.18 78.8664 314.25 77.2364C317.48 74.8464 320.9 72.7164 324.55 71.0164C327.07 70.0364 329.66 69.2864 332.32 68.8164C334.06 68.6764 335.8 68.6664 337.55 68.8164C338.86 69.0764 340.15 69.4264 341.41 69.8764C342.38 70.3564 343.31 70.9064 344.2 71.5164C344.92 72.1564 345.61 72.8364 346.24 73.5564C346.76 74.3364 347.23 75.1464 347.66 75.9764C347.98 76.8964 348.23 77.8364 348.43 78.7964C348.5 79.8264 348.5 80.8664 348.43 81.8964C348.18 83.1364 347.85 84.3464 347.43 85.5364C346.71 87.0164 345.87 88.4364 344.93 89.7864C343.27 91.7664 341.42 93.5664 339.42 95.2064C336.14 97.5564 332.61 99.5164 328.93 101.186C317.68 105.756 305.44 108.346 293.43 110.056C285.66 111.036 277.84 111.536 270.02 111.516C282.94 102.036 295.57 92.1864 308.09 82.1864L308.07 82.1764ZM68.92 76.0764C63.75 75.2664 58.66 74.0164 53.78 72.1264C50.99 70.8664 48.32 69.3664 45.84 67.5864C44.51 66.4564 43.26 65.2264 42.12 63.8864C41.46 62.9164 40.86 61.9164 40.34 60.8664C40.06 60.0464 39.83 59.2164 39.65 58.3764C39.61 57.6964 39.61 57.0264 39.65 56.3464C39.78 55.7464 39.94 55.1464 40.14 54.5564C40.43 54.0064 40.74 53.4764 41.08 52.9564C41.57 52.4164 42.09 51.8964 42.64 51.4164C43.43 50.8864 44.26 50.4164 45.12 49.9864C46.53 49.4864 47.97 49.0964 49.44 48.8164C52.02 48.5864 54.61 48.6264 57.19 48.8964C61.32 49.6064 65.34 50.8264 69.24 52.3664C76.3 55.4864 82.99 59.5164 89.71 63.3064C96.44 67.1064 103.15 70.9564 109.85 74.8064C108.47 75.0364 107.1 75.2464 105.72 75.4464C93.58 76.9864 81.14 77.5764 68.96 76.0964L68.92 76.0764ZM80.1 175.206C73.67 176.026 67.21 176.596 60.73 176.856C54.88 177.086 49.01 177.146 43.19 176.486C39.69 175.916 36.24 175.066 32.91 173.816C31.04 172.946 29.24 171.926 27.55 170.746C26.68 169.986 25.86 169.166 25.1 168.296C24.62 167.576 24.18 166.836 23.79 166.066C23.55 165.356 23.36 164.636 23.2 163.906C23.16 163.186 23.16 162.466 23.2 161.746C23.37 160.936 23.59 160.146 23.86 159.366C24.28 158.546 24.75 157.756 25.26 156.986C25.99 156.156 26.76 155.386 27.59 154.656C28.75 153.856 29.97 153.146 31.23 152.526C33.05 151.856 34.91 151.346 36.82 151.006C39.73 150.726 42.66 150.776 45.57 151.086C50.47 151.916 55.29 153.346 60.07 154.686C66.58 156.506 73.05 158.486 79.46 160.606C88.37 163.546 97.19 166.766 105.95 170.136C102.45 171.006 98.95 171.826 95.42 172.556C90.34 173.606 85.22 174.486 80.08 175.216L80.1 175.206Z" fill="#4C61DF"/>
</svg>
