<svg width="884" height="214" viewBox="0 0 884 214" fill="none" xmlns="http://www.w3.org/2000/svg">
<path d="M396.1 145.3C391.34 140.93 384.95 141.18 380.19 145.3C377.8 147.37 375.35 149.37 372.87 151.32C359.96 161.11 345.87 169.26 331 175.67C314.89 182.31 297.99 186.9 280.75 189.36C263.93 191.47 246.9 191.53 230.08 189.41C209.18 186.37 189.16 179.62 169.53 171.96C185.47 164.82 200.98 156.73 216.04 147.86C224.56 142.84 232.94 137.58 241.2 132.13C255.38 134.34 269.84 134.98 284.11 133.91C294.65 133.12 305.18 131.54 315.48 129.15C324.42 127.07 333.16 124.44 341.48 120.53C352.13 115.52 362.65 107.24 367.53 96.24C369.84 91.04 371.38 85.59 371.16 79.83C370.95 74.39 369.57 69.23 366.99 64.43C362.3 55.74 353.13 49.21 343.44 47.44C330.84 45.14 318.31 48.45 307.52 55.16C302.31 58.41 297.62 62.45 292.83 66.28C288.84 69.47 284.84 72.65 280.82 75.81C279.11 77.15 277.4 78.48 275.68 79.81C262.84 89.71 249.75 99.28 236.32 108.37C223.51 105.58 211.1 101.4 198.93 96.37C188.61 91.97 178.5 87.09 168.54 81.94C182.82 76.39 196.77 69.9299 210.39 62.9699C229.99 52.9699 249.02 41.88 267.8 30.42C272.7 27.43 277.59 24.41 282.46 21.37C287.45 18.26 289.85 11.19 286.5 5.97996C283.27 0.979959 276.45 -1.39002 271.11 1.93998C244.88 18.29 218.3 34.23 190.51 47.8C183.71 51.12 176.83 54.28 169.87 57.25C160.71 61.07 151.4 64.53 141.93 67.49C141.72 67.37 141.51 67.25 141.29 67.13C131.69 61.72 122.16 56.21 112.59 50.73C103.46 45.51 94.3799 40.1 85.0099 35.33C78.6799 32.11 71.9199 29.31 64.9399 27.88C58.1499 26.49 51.7199 26.25 44.8999 27.28C35.2699 28.74 25.8499 34.56 21.0799 43.2C15.8999 52.59 16.3999 63.53 21.2499 72.93C26.7899 83.68 37.7399 90.4 48.7099 94.5C55.8299 97.16 63.3799 98.4 70.9199 99.19C79.4499 100.08 88.1099 99.93 96.6499 99.27C111.07 98.16 125.31 95.54 139.23 91.73C148.67 96.94 158.18 102 167.86 106.74C181.72 113.53 196 119.96 210.74 124.79C201.71 130.26 192.54 135.49 183.19 140.4C173.11 145.69 162.82 150.6 152.34 155.07C148.23 156.78 144.1 158.42 139.93 159.98C126.75 154.57 113.56 149.18 100.16 144.32C87.7399 139.81 75.1599 135.73 62.3999 132.31C56.6799 130.78 51.0499 129.44 45.1399 128.88C40.7099 128.46 36.4199 128.84 32.0299 129.51C18.2299 131.61 4.89988 141.9 1.74988 155.91C0.0598789 163.43 1.05987 170.86 4.51987 177.73C7.80987 184.27 13.9199 189.66 20.3599 192.96C29.3299 197.56 39.2599 199.43 49.2699 199.82C61.4799 200.3 73.7599 199.03 85.8399 197.35C104.16 194.8 122.12 190.11 139.57 183.98C153.61 189.77 167.66 195.52 182.02 200.47C204.41 208.18 227.58 213 251.31 213.45C275.63 213.91 300.29 210.14 323.37 202.45C347.37 194.45 369.56 182.45 389.38 166.77C391.67 164.96 393.91 163.1 396.11 161.19C400.57 157.32 400.37 149.19 396.11 145.28L396.1 145.3ZM308.26 82.57C310.32 80.92 312.37 79.26 314.44 77.63C317.67 75.24 321.09 73.11 324.74 71.41C327.26 70.43 329.85 69.68 332.51 69.21C334.25 69.07 335.99 69.06 337.74 69.21C339.05 69.47 340.34 69.82 341.6 70.27C342.57 70.75 343.5 71.3 344.39 71.91C345.11 72.55 345.8 73.23 346.43 73.95C346.95 74.73 347.42 75.54 347.85 76.37C348.17 77.29 348.42 78.23 348.62 79.19C348.69 80.22 348.69 81.26 348.62 82.29C348.37 83.53 348.04 84.74 347.62 85.93C346.9 87.41 346.06 88.83 345.12 90.18C343.46 92.16 341.61 93.96 339.61 95.6C336.33 97.95 332.8 99.91 329.12 101.58C317.87 106.15 305.63 108.74 293.62 110.45C285.85 111.43 278.03 111.93 270.21 111.91C283.13 102.43 295.76 92.58 308.28 82.58L308.26 82.57ZM69.1099 76.4699C63.9399 75.6599 58.8499 74.41 53.9699 72.52C51.1799 71.26 48.5099 69.76 46.0299 67.98C44.6999 66.85 43.4499 65.62 42.3099 64.28C41.6499 63.31 41.0499 62.31 40.5299 61.26C40.2499 60.44 40.0199 59.61 39.8399 58.77C39.7999 58.09 39.7999 57.42 39.8399 56.74C39.9699 56.14 40.1299 55.54 40.3299 54.95C40.6199 54.4 40.9299 53.87 41.2699 53.35C41.7599 52.81 42.2799 52.29 42.8299 51.81C43.6199 51.28 44.4499 50.81 45.3099 50.38C46.7199 49.88 48.1599 49.49 49.6299 49.21C52.2099 48.98 54.7999 49.02 57.3799 49.29C61.5099 50 65.5299 51.22 69.4299 52.76C76.4899 55.88 83.1799 59.91 89.8999 63.7C96.6299 67.5 103.34 71.35 110.04 75.2C108.66 75.43 107.29 75.64 105.91 75.84C93.7699 77.38 81.3299 77.97 69.1499 76.49L69.1099 76.4699ZM80.2899 175.6C73.8599 176.42 67.3999 176.99 60.9199 177.25C55.0699 177.48 49.1999 177.54 43.3799 176.88C39.8799 176.31 36.4299 175.46 33.0999 174.21C31.2299 173.34 29.4299 172.32 27.7399 171.14C26.8699 170.38 26.0499 169.56 25.2899 168.69C24.8099 167.97 24.3699 167.23 23.9799 166.46C23.7399 165.75 23.5499 165.03 23.3899 164.3C23.3499 163.58 23.3499 162.86 23.3899 162.14C23.5599 161.33 23.7799 160.54 24.0499 159.76C24.4699 158.94 24.9399 158.15 25.4499 157.38C26.1799 156.55 26.9499 155.78 27.7799 155.05C28.9399 154.25 30.1599 153.54 31.4199 152.92C33.2399 152.25 35.0999 151.74 37.0099 151.4C39.9199 151.12 42.8499 151.17 45.7599 151.48C50.6599 152.31 55.4799 153.74 60.2599 155.08C66.7699 156.9 73.2399 158.88 79.6499 161C88.5599 163.94 97.3799 167.16 106.14 170.53C102.64 171.4 99.1399 172.22 95.6099 172.95C90.5299 174 85.4099 174.88 80.2699 175.61L80.2899 175.6Z" fill="#4C61DF"/>
<path d="M472.8 153.27C472.8 124.06 504.34 107.98 525.59 105.27C525.97 105.22 526.26 104.9 526.26 104.51C526.26 104.13 525.98 103.81 525.61 103.75C504.53 100.65 481.31 86.59 481.31 62.24C481.31 35.4 513.96 17.96 546.39 17.96C578.82 17.96 599.4 37.64 599.4 56.43C599.4 70.74 586.88 82.15 574.35 82.15C564.73 82.15 557.35 76.33 557.35 66.94C557.35 51.95 576.36 51.28 576.36 38.98C576.36 31.15 563.39 24.67 551.09 24.67C524.25 24.67 510.83 40.55 510.83 56.65C510.83 80.96 534.43 100.01 563.02 101.11C564.48 101.17 565.63 102.38 565.63 103.84C565.63 105.31 564.47 106.52 563 106.57C530.23 107.65 508.15 128.79 508.15 150.14C508.15 178.32 528.28 195.77 555.12 195.77C568.09 195.77 586.66 189.73 586.66 178.1C586.66 161.33 563.62 162.22 563.62 142.31C563.62 133.14 571.9 125.98 583.3 125.98C598.73 125.98 609.24 140.52 609.24 157.74C609.24 180.55 586.65 204.93 541.7 204.93C508.15 204.93 472.81 190.39 472.81 153.27H472.8Z" fill="#303030"/>
<path d="M656.98 140.56L663.48 146.18L639.1 179.56C637.43 181.73 636.74 183.58 637.04 185.12C637.33 186.66 638.77 187.93 641.35 188.93L646.1 190.18C647.6 190.85 648.68 191.56 649.35 192.3C650.02 193.05 650.35 193.97 650.35 195.05C650.35 196.55 649.85 197.74 648.85 198.61C647.85 199.48 646.35 199.92 644.35 199.92H615.85C614.18 199.92 612.83 199.48 611.79 198.61C610.75 197.73 610.23 196.51 610.23 194.92C610.23 193.84 610.58 192.86 611.29 191.98C612 191.1 613.31 190.25 615.23 189.42C617.15 188.75 618.87 187.88 620.42 186.8C621.96 185.72 623.48 184.32 624.98 182.61C626.48 180.9 628.23 178.84 630.23 176.42L656.98 140.54V140.56ZM654.86 109.18L676.74 139.43L678.62 141.81L708.24 181.81C709.99 184.31 711.59 186.17 713.05 187.37C714.51 188.58 716.24 189.52 718.24 190.18C719.74 190.76 720.78 191.45 721.36 192.24C721.94 193.03 722.24 193.97 722.24 195.05C722.24 196.63 721.76 197.84 720.8 198.67C719.84 199.5 718.44 199.92 716.61 199.92H676.23C674.31 199.92 672.81 199.5 671.73 198.67C670.65 197.84 670.11 196.63 670.11 195.05C670.11 193.88 670.38 192.97 670.92 192.3C671.46 191.63 672.36 191.05 673.61 190.55L678.49 189.17C680.57 188.67 681.7 187.88 681.87 186.79C682.04 185.71 681.58 184.37 680.49 182.79L656.37 149.79L654.49 147.17L627.11 109.79C625.36 107.37 623.67 105.54 622.05 104.29C620.43 103.04 618.57 102.08 616.49 101.41C614.99 100.83 613.91 100.1 613.24 99.22C612.57 98.34 612.24 97.33 612.24 96.16C612.24 94.58 612.76 93.39 613.8 92.6C614.84 91.81 616.24 91.41 617.99 91.41H658.74C660.57 91.41 661.99 91.83 662.99 92.66C663.99 93.49 664.49 94.66 664.49 96.16C664.49 97.41 664.26 98.39 663.8 99.1C663.34 99.81 662.49 100.46 661.24 101.04L656.49 102.16C654.49 102.74 653.37 103.6 653.11 104.72C652.85 105.84 653.44 107.33 654.86 109.16V109.18ZM675.24 148.56L668.86 142.81L691.36 111.93C693.11 109.6 693.84 107.64 693.55 106.05C693.26 104.47 691.78 103.22 689.11 102.3L684.36 101.18C682.78 100.51 681.69 99.79 681.11 98.99C680.53 98.2 680.23 97.26 680.23 96.18C680.23 94.68 680.73 93.51 681.73 92.68C682.73 91.85 684.15 91.43 685.98 91.43H714.6C716.27 91.43 717.58 91.83 718.54 92.62C719.5 93.41 719.98 94.64 719.98 96.31C719.98 97.39 719.65 98.37 718.98 99.25C718.31 100.13 717.02 100.94 715.1 101.69C712.18 102.86 709.7 104.4 707.66 106.31C705.62 108.23 703.14 111.14 700.22 115.06L675.22 148.56H675.24Z" fill="#303030"/>
<path d="M764.86 22.06V180.69C764.86 183.36 765.21 185.25 765.92 186.38C766.63 187.5 767.86 188.32 769.61 188.82L774.49 189.82C775.74 190.4 776.7 191.13 777.37 192.01C778.04 192.89 778.37 193.91 778.37 195.07C778.37 196.57 777.91 197.76 776.99 198.63C776.07 199.51 774.66 199.94 772.74 199.94H733.99C732.24 199.94 730.87 199.5 729.87 198.63C728.87 197.76 728.37 196.57 728.37 195.07C728.37 193.9 728.7 192.88 729.37 192.01C730.04 191.13 731.04 190.41 732.37 189.82L737.25 188.82C739 188.32 740.23 187.51 740.94 186.38C741.65 185.26 742 183.36 742 180.69V41.19C742 39.02 741.69 37.48 741.06 36.57C740.44 35.65 739.37 35.03 737.87 34.69L730.62 34.44C729.2 34.02 728.2 33.44 727.62 32.69C727.04 31.94 726.74 31.02 726.74 29.94C726.74 28.69 727.12 27.61 727.86 26.69C728.61 25.77 729.98 24.98 731.98 24.31L749.98 18.31C752.4 17.39 754.27 16.77 755.6 16.43C756.93 16.1 758.14 15.93 759.22 15.93C761.05 15.93 762.45 16.49 763.41 17.62C764.37 18.74 764.85 20.23 764.85 22.06H764.86Z" fill="#303030"/>
<path d="M883.35 130.68C883.35 134.93 882.23 138.18 879.97 140.43C877.71 142.68 874.43 143.81 870.09 143.81H802.22V134.81H853.34C857.51 134.81 859.59 132.73 859.59 128.56C859.59 119.98 857.47 113.12 853.21 108C848.95 102.88 843.42 100.31 836.59 100.31C831.09 100.31 826.17 101.87 821.84 105C817.51 108.12 814.13 112.62 811.72 118.5C809.3 124.38 808.1 131.4 808.1 139.56C808.1 154.56 811.52 166 818.35 173.87C825.18 181.75 834.1 185.68 845.1 185.68C852.77 185.68 859.27 183.76 864.6 179.93C869.93 176.1 873.68 171.47 875.85 166.05C876.68 164.88 877.47 164.05 878.23 163.55C878.99 163.05 879.73 162.8 880.48 162.8C881.48 162.8 882.29 163.22 882.92 164.05C883.54 164.88 883.77 166.01 883.61 167.43C883.11 173.51 880.92 179.2 877.05 184.49C873.17 189.78 867.97 194.1 861.43 197.43C854.89 200.76 847.24 202.43 838.49 202.43C827.91 202.43 818.76 200.1 811.05 195.43C803.34 190.76 797.38 184.24 793.17 175.87C788.96 167.49 786.86 157.73 786.86 146.56C786.86 135.39 788.96 125.81 793.17 117.06C797.38 108.31 803.42 101.44 811.29 96.44C819.16 91.44 828.68 88.94 839.85 88.94C848.52 88.94 856.1 90.73 862.6 94.32C869.1 97.9 874.18 102.86 877.85 109.2C881.52 115.53 883.35 122.7 883.35 130.7V130.68Z" fill="#303030"/>
</svg>
