<svg width="1114" height="614" viewBox="0 0 1114 614" fill="none" xmlns="http://www.w3.org/2000/svg">
<path d="M1101.15 0H12C5.37258 0 0 5.37258 0 12V601.94C0 608.568 5.37258 613.94 12 613.94H1101.15C1107.78 613.94 1113.15 608.568 1113.15 601.94V12C1113.15 5.37258 1107.78 0 1101.15 0Z" fill="black"/>
<path d="M437.96 381.42V381.67C437.96 389.26 431.81 395.41 424.22 395.41H393.8C386.21 395.41 380.06 401.56 380.06 409.15V416.02C380.06 423.61 386.21 429.76 393.8 429.76H419.31C426.9 429.76 433.05 435.91 433.05 443.5C433.05 451.09 426.9 457.24 419.31 457.24H393.8C386.21 457.24 380.06 463.39 380.06 470.98V479.57C380.06 487.16 386.21 493.31 393.8 493.31H423.98C431.57 493.31 437.72 499.46 437.72 507.05C437.72 514.64 431.57 520.79 423.98 520.79H363.38C355.79 520.79 349.64 514.64 349.64 507.05V381.44C349.64 373.85 355.79 367.7 363.38 367.7H424.22C431.81 367.7 437.96 373.85 437.96 381.44V381.42Z" fill="white"/>
<path d="M484.55 375.74L497.82 404.97C499.26 408.15 503.78 408.17 505.25 405L518.9 375.63C521.15 370.78 526.01 367.68 531.36 367.68H531.56C541.76 367.68 548.41 378.41 543.86 387.55L527.85 419.67C521.15 433.12 521.17 448.94 527.9 462.37L547.21 500.87C551.79 510.01 545.15 520.77 534.93 520.77H532.64C527.27 520.77 522.39 517.64 520.15 512.76L504.25 478.12C502.79 474.94 498.26 474.95 496.81 478.13L481.11 512.7C478.88 517.61 473.99 520.76 468.6 520.76H467.97C457.77 520.76 451.13 510.04 455.67 500.91L474.47 463.08C481.14 449.66 481.12 433.89 474.42 420.48L457.96 387.56C453.39 378.43 460.04 367.68 470.25 367.68H472.04C477.43 367.68 482.32 370.83 484.55 375.74Z" fill="white"/>
<path d="M601.35 381.42V479.55C601.35 487.14 607.5 493.29 615.09 493.29H645.76C653.35 493.29 659.5 499.44 659.5 507.03C659.5 514.62 653.35 520.77 645.76 520.77H584.67C577.08 520.77 570.93 514.62 570.93 507.03V381.42C570.93 373.83 577.08 367.68 584.67 367.68H587.61C595.2 367.68 601.35 373.83 601.35 381.42Z" fill="white"/>
<path d="M763.51 381.42V381.67C763.51 389.26 757.36 395.41 749.77 395.41H719.35C711.76 395.41 705.61 401.56 705.61 409.15V416.02C705.61 423.61 711.76 429.76 719.35 429.76H744.86C752.45 429.76 758.6 435.91 758.6 443.5C758.6 451.09 752.45 457.24 744.86 457.24H719.35C711.76 457.24 705.61 463.39 705.61 470.98V479.57C705.61 487.16 711.76 493.31 719.35 493.31H749.53C757.12 493.31 763.27 499.46 763.27 507.05C763.27 514.64 757.12 520.79 749.53 520.79H688.93C681.34 520.79 675.19 514.64 675.19 507.05V381.44C675.19 373.85 681.34 367.7 688.93 367.7H749.77C757.36 367.7 763.51 373.85 763.51 381.44V381.42Z" fill="white"/>
<path d="M752.55 252.36C747.79 247.99 741.4 248.24 736.64 252.36C734.25 254.43 731.8 256.43 729.32 258.38C716.41 268.17 702.32 276.32 687.45 282.73C671.34 289.37 654.44 293.96 637.2 296.42C620.38 298.53 603.35 298.59 586.53 296.47C565.63 293.43 545.61 286.68 525.98 279.02C541.92 271.88 557.43 263.79 572.49 254.92C581.01 249.9 589.39 244.64 597.65 239.19C611.83 241.4 626.29 242.04 640.56 240.97C651.1 240.18 661.63 238.6 671.93 236.21C680.87 234.13 689.61 231.5 697.93 227.59C708.58 222.58 719.1 214.3 723.98 203.3C726.29 198.1 727.83 192.65 727.61 186.89C727.4 181.45 726.02 176.29 723.44 171.49C718.75 162.8 709.58 156.27 699.89 154.5C687.29 152.2 674.76 155.51 663.97 162.22C658.76 165.47 654.07 169.51 649.28 173.34C645.29 176.53 641.29 179.71 637.27 182.87C635.56 184.21 633.85 185.54 632.13 186.87C619.29 196.77 606.2 206.34 592.77 215.43C579.96 212.64 567.55 208.46 555.38 203.43C545.06 199.03 534.95 194.15 524.99 189C539.27 183.45 553.22 176.99 566.84 170.03C586.44 160.03 605.47 148.94 624.25 137.48C629.15 134.49 634.04 131.47 638.91 128.43C643.9 125.32 646.3 118.25 642.95 113.04C639.72 108.04 632.9 105.67 627.56 109C601.33 125.35 574.75 141.29 546.96 154.86C540.16 158.18 533.28 161.34 526.32 164.31C517.16 168.13 507.85 171.59 498.38 174.55C498.17 174.43 497.96 174.31 497.74 174.19C488.14 168.78 478.61 163.27 469.04 157.79C459.91 152.57 450.83 147.16 441.46 142.39C435.13 139.17 428.37 136.37 421.39 134.94C414.6 133.55 408.17 133.31 401.35 134.34C391.72 135.8 382.3 141.62 377.53 150.26C372.35 159.65 372.85 170.59 377.7 179.99C383.24 190.74 394.19 197.46 405.16 201.56C412.28 204.22 419.83 205.46 427.37 206.25C435.9 207.14 444.56 206.99 453.1 206.33C467.52 205.22 481.76 202.6 495.68 198.79C505.12 204 514.63 209.06 524.31 213.8C538.17 220.59 552.45 227.02 567.19 231.85C558.16 237.32 548.99 242.55 539.64 247.46C529.56 252.75 519.27 257.66 508.79 262.13C504.68 263.84 500.55 265.48 496.38 267.04C483.2 261.63 470.01 256.24 456.61 251.38C444.19 246.87 431.61 242.79 418.85 239.37C413.13 237.84 407.5 236.5 401.59 235.94C397.16 235.52 392.87 235.9 388.48 236.57C374.68 238.67 361.35 248.96 358.2 262.97C356.51 270.49 357.51 277.92 360.97 284.79C364.26 291.33 370.37 296.72 376.81 300.02C385.78 304.62 395.71 306.49 405.72 306.88C417.93 307.36 430.21 306.09 442.29 304.41C460.61 301.86 478.57 297.17 496.02 291.04C510.06 296.83 524.11 302.58 538.47 307.53C560.86 315.24 584.03 320.06 607.76 320.51C632.08 320.97 656.74 317.2 679.82 309.51C703.82 301.51 726.01 289.51 745.83 273.83C748.12 272.02 750.36 270.16 752.56 268.25C757.02 264.38 756.82 256.25 752.56 252.34L752.55 252.36ZM664.71 189.63C666.77 187.98 668.82 186.32 670.89 184.69C674.12 182.3 677.54 180.17 681.19 178.47C683.71 177.49 686.3 176.74 688.96 176.27C690.7 176.13 692.44 176.12 694.19 176.27C695.5 176.53 696.79 176.88 698.05 177.33C699.02 177.81 699.95 178.36 700.84 178.97C701.56 179.61 702.25 180.29 702.88 181.01C703.4 181.79 703.87 182.6 704.3 183.43C704.62 184.35 704.87 185.29 705.07 186.25C705.14 187.28 705.14 188.32 705.07 189.35C704.82 190.59 704.49 191.8 704.07 192.99C703.35 194.47 702.51 195.89 701.57 197.24C699.91 199.22 698.06 201.02 696.06 202.66C692.78 205.01 689.25 206.97 685.57 208.64C674.32 213.21 662.08 215.8 650.07 217.51C642.3 218.49 634.48 218.99 626.66 218.97C639.58 209.49 652.21 199.64 664.73 189.64L664.71 189.63ZM425.56 183.53C420.39 182.72 415.3 181.47 410.42 179.58C407.63 178.32 404.96 176.82 402.48 175.04C401.15 173.91 399.9 172.68 398.76 171.34C398.1 170.37 397.5 169.37 396.98 168.32C396.7 167.5 396.47 166.67 396.29 165.83C396.25 165.15 396.25 164.48 396.29 163.8C396.42 163.2 396.58 162.6 396.78 162.01C397.07 161.46 397.38 160.93 397.72 160.41C398.21 159.87 398.73 159.35 399.28 158.87C400.07 158.34 400.9 157.87 401.76 157.44C403.17 156.94 404.61 156.55 406.08 156.27C408.66 156.04 411.25 156.08 413.83 156.35C417.96 157.06 421.98 158.28 425.88 159.82C432.94 162.94 439.63 166.97 446.35 170.76C453.08 174.56 459.79 178.41 466.49 182.26C465.11 182.49 463.74 182.7 462.36 182.9C450.22 184.44 437.78 185.03 425.6 183.55L425.56 183.53ZM436.74 282.66C430.31 283.48 423.85 284.05 417.37 284.31C411.52 284.54 405.65 284.6 399.83 283.94C396.33 283.37 392.88 282.52 389.55 281.27C387.68 280.4 385.88 279.38 384.19 278.2C383.32 277.44 382.5 276.62 381.74 275.75C381.26 275.03 380.82 274.29 380.43 273.52C380.19 272.81 380 272.09 379.84 271.36C379.8 270.64 379.8 269.92 379.84 269.2C380.01 268.39 380.23 267.6 380.5 266.82C380.92 266 381.39 265.21 381.9 264.44C382.63 263.61 383.4 262.84 384.23 262.11C385.39 261.31 386.61 260.6 387.87 259.98C389.69 259.31 391.55 258.8 393.46 258.46C396.37 258.18 399.3 258.23 402.21 258.54C407.11 259.37 411.93 260.8 416.71 262.14C423.22 263.96 429.69 265.94 436.1 268.06C445.01 271 453.83 274.22 462.59 277.59C459.09 278.46 455.59 279.28 452.06 280.01C446.98 281.06 441.86 281.94 436.72 282.67L436.74 282.66Z" fill="white"/>
</svg>
